<svg xmlns="http://www.w3.org/2000/svg" width="76" height="62" viewBox="0 0 76 62" fill="none"><path d="M45.1824 56.4765C45.2904 56.4822 45.3928 56.4907 45.498 56.4964C40.3945 55.5667 40.4173 52.8657 40.1699 51.012C39.9083 49.0502 39.6866 48.5925 39.5046 48.0835C37.9579 42.275 31.3931 38.6016 29.4882 37.6435C28.1974 40.2905 22.73 53.2751 36.3629 59.3566C36.6586 59.4874 36.9401 59.6182 37.213 59.749L35.5498 55.9079C33.4459 54.0883 30.978 50.0453 33.3861 41.5756C33.3861 41.5756 30.3383 55.5724 45.1795 56.4765H45.1824Z" fill="#EDA35A"></path><path d="M40.0096 39.2697C30.9883 30.4645 19.5019 33.646 17.5117 34.2885C17.5601 34.2914 17.6112 34.2971 17.6624 34.2999C30.2263 35.4144 36.4045 40.6657 38.9775 45.6128C40.291 48.0807 40.7147 50.4746 40.7744 52.2743C41.3828 56.7949 45.3831 56.34 45.3661 56.3372C29.1686 59.5187 33.2741 42.0105 33.4192 41.4021C32.6799 42.8834 27.3718 54.3072 36.4841 59.476C36.45 59.4618 36.359 59.4334 36.2225 59.3879C36.2907 59.422 36.3419 59.4476 36.376 59.4646C36.3931 59.4703 36.4073 59.476 36.4244 59.4817C36.4244 59.4817 36.4045 59.476 36.376 59.4646C20.4999 53.7385 27.2353 40.6572 28.455 38.539C28.3839 38.6073 28.1536 38.8433 27.821 39.2271C26.6155 40.6743 24.5172 43.6169 23.778 47.2874C23.3373 49.6472 23.471 52.3312 24.793 55.1544C18.8906 50.2983 18.16 46.1104 18.1003 44.3391C18.0349 44.703 16.7327 52.5188 25.7682 58.5776C26.7349 59.2002 27.5935 59.6551 28.1963 59.948C28.2133 59.965 28.2276 59.9821 28.2446 59.9992C37.428 64.5084 46.7706 59.8769 47.1203 56.4367C46.3015 48.2399 43.501 42.8066 40.0067 39.2669L40.0096 39.2697ZM28.4664 38.4964L28.4749 38.5106C28.4863 38.4907 28.4977 38.4708 28.509 38.4538C28.4977 38.468 28.4834 38.4822 28.4692 38.4964H28.4664Z" fill="#C15354"></path><path d="M33.7942 15.6689C23.5418 17.2241 19.8912 30.0325 19.8912 30.0325C25.0316 19.3877 33.8596 15.7769 33.7942 15.6689ZM27.7042 13.056C18.245 17.5652 18.8705 30.2656 18.8705 30.2656C21.563 17.4373 27.9345 13.0901 27.7042 13.056ZM16.4396 31.2977C16.4396 31.3488 16.4368 31.3972 16.4339 31.4483C16.4481 31.454 16.4481 31.4 16.4396 31.2977ZM43.8931 5.02694C38.383 -0.352307 31.8324 0.571717 29.1627 1.25976C23.0386 3.03104 19.2202 8.08332 17.5115 13.6786C14.9157 21.3466 16.3401 30.0524 16.4424 31.2977C16.8888 17.0705 21.3867 11.0146 25.7623 8.46431C26.257 8.18284 26.7489 7.9497 27.2379 7.75068C28.4832 7.29293 29.8991 6.91195 31.2922 6.83518C34.7722 6.61057 36.8875 8.05205 36.8875 8.05205C37.1292 8.19705 37.3425 8.35911 37.5273 8.5297C37.5443 8.54392 37.5614 8.56097 37.5813 8.57519C35.9834 4.6488 30.3796 3.65938 30.2829 3.61958C30.2886 3.61958 30.2914 3.61958 30.2971 3.61958C30.6525 3.6082 39.0228 3.42909 39.6682 10.0195C39.9326 13.8606 37.3311 17.6733 37.3311 17.6733C37.3311 17.6733 37.3055 17.6846 37.2572 17.7045C37.2515 17.7131 37.2458 17.7216 37.2401 17.7301C36.771 18.4523 36.1938 19.2057 35.4802 19.9734C35.3437 20.1099 35.2044 20.2492 35.0622 20.3856C32.5006 22.8876 29.5209 25.327 26.8711 27.3457C26.8171 27.3684 26.7887 27.3826 26.7887 27.3826C26.7887 27.3826 26.5442 27.5902 26.0694 27.9541C25.7794 28.173 25.495 28.3834 25.2164 28.5881C24.1303 29.3728 22.4955 30.4817 20.3518 31.727C25.4581 30.1974 29.8792 28.264 31.949 27.3059C38.312 24.1528 42.2725 21.122 44.601 18.33C46.0994 16.4138 46.7277 14.5657 46.8812 12.9195C47.1456 9.37127 45.5677 6.7641 43.8931 5.02694Z" fill="#C15354"></path><path d="M16.1235 33.3133C15.5179 30.4531 13.5448 26.8821 7.43768 26.9731C1.27373 27.8062 0.73069 33.0603 0.73069 33.0603C2.23187 31.5904 3.85247 30.6465 6.14121 30.4219C7.25572 30.3877 10.9803 30.5526 12.2483 34.1634C12.5355 35.1671 12.7402 36.9384 11.8616 39.3209C11.2703 40.5378 10.2695 41.6921 8.57779 42.0077C7.89259 42.0845 6.2066 42.1129 4.18228 41.0297C5.22856 40.9159 7.25288 40.4411 8.04612 38.5049C8.04612 38.5049 3.95767 40.5406 0.742063 38.0415C0.494709 37.8425 0.247354 37.6207 0 37.3648C0.0255884 37.4786 1.03491 40.2137 2.86021 41.8001C8.25082 47.3557 16.0069 44.1884 16.3026 36.8758C16.3566 35.5111 16.2884 34.3312 16.1207 33.3076L16.1235 33.3133Z" fill="#C15354"></path><path d="M6.75043 31.4454C5.32317 31.107 3.89307 31.9856 3.55189 33.41C3.21071 34.8344 4.09209 36.2645 5.51651 36.6057C6.94093 36.9469 8.37387 36.0655 8.71505 34.6411C9.05623 33.2166 8.17485 31.7865 6.75043 31.4454ZM7.59769 33.3361C7.50103 33.7426 7.09161 33.9957 6.68504 33.8962C6.27847 33.7995 6.02543 33.3901 6.12494 32.9835C6.22445 32.5769 6.63102 32.3239 7.03759 32.4234C7.44416 32.5201 7.6972 32.9295 7.59769 33.3361Z" fill="#C15354"></path><path d="M4.87791 12.5583C2.14849 12.5441 2.08025 14.051 2.18545 14.7276C2.58918 15.6829 3.44496 16.4022 5.19635 15.356C7.05861 14.3751 12.6028 16.8003 11.2096 27.2432C11.2096 27.2432 14.1381 13.4368 4.87507 12.5583H4.87791Z" fill="#C15354"></path><path d="M1.97882 18.7165C0.315579 19.2198 0.557247 20.1523 0.750581 20.5447C1.17705 21.0536 1.83098 21.3322 2.69814 20.3627C3.64775 19.4159 7.47179 19.8566 8.58915 26.4954C8.58915 26.4954 7.77316 17.5167 1.97882 18.7165Z" fill="#C15354"></path><path d="M44.7936 5.22876C47.7249 7.76485 49.3085 10.0621 50.1103 12.0609C50.9035 14.2643 51.7707 19.2199 46.4085 24.2523C40.3042 29.3643 29.6908 31.6189 26.6855 31.9658C30.0007 31.9174 48.356 31.2322 53.3515 22.2194C53.8917 21.1049 54.1959 20.0899 54.3665 19.3194C56.3993 7.9724 44.7936 5.22876 44.7936 5.22876Z" fill="#C15354"></path></svg>