<svg xmlns="http://www.w3.org/2000/svg" width="92" height="79" viewBox="0 0 92 79" fill="none"><path d="M54.7663 40.2745C52.5571 40.2745 50.7663 42.0654 50.7663 44.2745V75C50.7663 77.2091 52.5571 79 54.7663 79H62C78.5686 79 92 65.5686 92 49V43.3888C92 42.7953 91.8679 42.2092 91.6134 41.6731L72.9111 2.28433C72.2487 0.889153 70.8422 0 69.2978 0H56.6241C53.8078 0 51.8734 2.83291 52.8985 5.45601L64.3738 34.8185C65.3989 37.4416 63.4645 40.2745 60.6482 40.2745H54.7663ZM4 40.2745C1.79086 40.2745 0 42.0654 0 44.2745V75C0 77.2091 1.79086 79 4 79H37.2337C39.4429 79 41.2337 77.2091 41.2337 75V43.3888C41.2337 42.7953 41.1017 42.2092 40.8471 41.6731L22.1449 2.28433C21.4824 0.889153 20.076 0 18.5315 0H5.85787C3.04157 0 1.10714 2.83291 2.13227 5.45601L13.6075 34.8185C14.6326 37.4416 12.6982 40.2745 9.88189 40.2745H4Z" fill="#FFF1E6"></path></svg>