<svg width="30" height="31" viewBox="0 0 30 31" fill="none" xmlns="http://www.w3.org/2000/svg">
<g clip-path="url(#clip0_804_12255)">
<path d="M6.4773 22.9573C8.251 23.1864 9.79841 23.9067 10.8941 24.899C11.1235 25.1069 11.0381 25.7685 10.7634 25.9112C9.45159 26.5927 7.77194 26.8963 5.99824 26.6672C4.22453 26.4382 2.67712 25.7179 1.58147 24.7255C1.352 24.5177 1.43747 23.856 1.71218 23.7133C3.02394 23.0319 4.70359 22.7283 6.4773 22.9573Z" fill="url(#paint0_linear_804_12255)"/>
<path d="M6.4773 22.9573C8.251 23.1864 9.79841 23.9067 10.8941 24.899C11.1235 25.1069 11.0381 25.7685 10.7634 25.9112C9.45159 26.5927 7.77194 26.8963 5.99824 26.6672C4.22453 26.4382 2.67712 25.7179 1.58147 24.7255C1.352 24.5177 1.43747 23.856 1.71218 23.7133C3.02394 23.0319 4.70359 22.7283 6.4773 22.9573Z" fill="url(#paint1_linear_804_12255)"/>
<path d="M6.68476 20.4738C8.58165 21.2961 10.0698 22.5918 10.9691 24.0449C11.1574 24.3492 10.8506 25.0568 10.4998 25.1273C8.82453 25.4643 6.86153 25.2636 4.96471 24.4413C3.06782 23.6189 1.57965 22.3233 0.680353 20.8702C0.492059 20.5659 0.798823 19.8583 1.14965 19.7877C2.82494 19.4508 4.78788 19.6514 6.68476 20.4738Z" fill="url(#paint2_linear_804_12255)"/>
<path d="M6.68476 20.4738C8.58165 21.2961 10.0698 22.5918 10.9691 24.0449C11.1574 24.3492 10.8506 25.0568 10.4998 25.1273C8.82453 25.4643 6.86153 25.2636 4.96471 24.4413C3.06782 23.6189 1.57965 22.3233 0.680353 20.8702C0.492059 20.5659 0.798823 19.8583 1.14965 19.7877C2.82494 19.4508 4.78788 19.6514 6.68476 20.4738Z" fill="url(#paint3_linear_804_12255)"/>
<path d="M10.1007 16.4864C10.8604 18.4092 10.9966 20.3777 10.605 22.0411C10.523 22.3894 9.80568 22.6728 9.50774 22.4747C8.08486 21.5282 6.83868 19.9984 6.07892 18.0756C5.31915 16.1528 5.18297 14.1843 5.57462 12.5209C5.65662 12.1726 6.37392 11.8892 6.67186 12.0874C8.09474 13.0337 9.34092 14.5636 10.1007 16.4864Z" fill="url(#paint4_linear_804_12255)"/>
<path d="M10.1007 16.4864C10.8604 18.4092 10.9966 20.3777 10.605 22.0411C10.523 22.3894 9.80568 22.6728 9.50774 22.4747C8.08486 21.5282 6.83868 19.9984 6.07892 18.0756C5.31915 16.1528 5.18297 14.1843 5.57462 12.5209C5.65662 12.1726 6.37392 11.8892 6.67186 12.0874C8.09474 13.0337 9.34092 14.5636 10.1007 16.4864Z" fill="url(#paint5_linear_804_12255)"/>
<path d="M7.33181 16.5588C9.26593 18.2977 10.5235 20.4378 11.0156 22.5305C11.1187 22.9687 10.47 23.6902 10.0233 23.6342C7.89028 23.3668 5.62887 22.3433 3.69475 20.6044C1.76063 18.8655 0.503044 16.7254 0.0109262 14.6327C-0.0921326 14.1945 0.556514 13.473 1.00322 13.529C3.13622 13.7964 5.39769 14.82 7.33181 16.5588Z" fill="url(#paint6_linear_804_12255)"/>
<path d="M0.898438 17.0104C1.55638 18.2914 2.49591 19.5252 3.69626 20.6043C5.63038 22.3432 7.89179 23.3667 10.0248 23.6342C10.4716 23.6902 11.1202 22.9687 11.0171 22.5305C10.525 20.4378 9.26744 18.2976 7.33332 16.5588C6.19444 15.5349 4.94197 14.7593 3.66914 14.2397L0.898438 17.0104Z" fill="url(#paint7_linear_804_12255)"/>
<path d="M23.5217 22.9573C21.748 23.1864 20.2006 23.9067 19.1049 24.899C18.8754 25.1069 18.9609 25.7685 19.2356 25.9112C20.5474 26.5927 22.227 26.8963 24.0007 26.6672C25.7744 26.4382 27.3219 25.7179 28.4175 24.7255C28.647 24.5177 28.5615 23.856 28.2868 23.7133C26.975 23.0319 25.2954 22.7283 23.5217 22.9573Z" fill="url(#paint8_linear_804_12255)"/>
<path d="M23.5217 22.9573C21.748 23.1864 20.2006 23.9067 19.1049 24.899C18.8754 25.1069 18.9609 25.7685 19.2356 25.9112C20.5474 26.5927 22.227 26.8963 24.0007 26.6672C25.7744 26.4382 27.3219 25.7179 28.4175 24.7255C28.647 24.5177 28.5615 23.856 28.2868 23.7133C26.975 23.0319 25.2954 22.7283 23.5217 22.9573Z" fill="url(#paint9_linear_804_12255)"/>
<path d="M23.3143 20.4738C21.4174 21.2961 19.9293 22.5918 19.03 24.0449C18.8417 24.3492 19.1484 25.0568 19.4993 25.1273C21.1746 25.4643 23.1375 25.2636 25.0344 24.4413C26.9313 23.6189 28.4194 22.3233 29.3187 20.8702C29.507 20.5659 29.2003 19.8583 28.8494 19.7877C27.1741 19.4508 25.2112 19.6514 23.3143 20.4738Z" fill="url(#paint10_linear_804_12255)"/>
<path d="M23.3143 20.4738C21.4174 21.2961 19.9293 22.5918 19.03 24.0449C18.8417 24.3492 19.1484 25.0568 19.4993 25.1273C21.1746 25.4643 23.1375 25.2636 25.0344 24.4413C26.9313 23.6189 28.4194 22.3233 29.3187 20.8702C29.507 20.5659 29.2003 19.8583 28.8494 19.7877C27.1741 19.4508 25.2112 19.6514 23.3143 20.4738Z" fill="url(#paint11_linear_804_12255)"/>
<path d="M19.8992 16.4864C19.1395 18.4092 19.0033 20.3777 19.3949 22.0411C19.4769 22.3894 20.1942 22.6728 20.4922 22.4747C21.9151 21.5282 23.1612 19.9984 23.921 18.0756C24.6808 16.1528 24.8169 14.1843 24.4253 12.5209C24.3433 12.1726 23.626 11.8892 23.3281 12.0874C21.9052 13.0337 20.659 14.5636 19.8992 16.4864Z" fill="url(#paint12_linear_804_12255)"/>
<path d="M19.8992 16.4864C19.1395 18.4092 19.0033 20.3777 19.3949 22.0411C19.4769 22.3894 20.1942 22.6728 20.4922 22.4747C21.9151 21.5282 23.1612 19.9984 23.921 18.0756C24.6808 16.1528 24.8169 14.1843 24.4253 12.5209C24.3433 12.1726 23.626 11.8892 23.3281 12.0874C21.9052 13.0337 20.659 14.5636 19.8992 16.4864Z" fill="url(#paint13_linear_804_12255)"/>
<path d="M22.6674 16.5588C20.7333 18.2977 19.4757 20.4378 18.9836 22.5305C18.8805 22.9687 19.5292 23.6902 19.9759 23.6342C22.1089 23.3668 24.3703 22.3433 26.3045 20.6044C28.2386 18.8655 29.4962 16.7254 29.9883 14.6327C30.0913 14.1945 29.4427 13.473 28.996 13.529C26.863 13.7964 24.6015 14.82 22.6674 16.5588Z" fill="url(#paint14_linear_804_12255)"/>
<path d="M29.1023 17.0104C28.4443 18.2914 27.5048 19.5252 26.3045 20.6043C24.3703 22.3432 22.1089 23.3667 19.9759 23.6342C19.5292 23.6902 18.8805 22.9687 18.9836 22.5305C19.4757 20.4378 20.7333 18.2976 22.6674 16.5588C23.8063 15.5349 25.0588 14.7593 26.3316 14.2397L29.1023 17.0104Z" fill="url(#paint15_linear_804_12255)"/>
<path d="M14.999 30.7309C20.1653 30.7309 24.3535 26.5428 24.3535 21.3764C24.3535 16.2101 20.1653 12.022 14.999 12.022C9.83267 12.022 5.64453 16.2101 5.64453 21.3764C5.64453 26.5428 9.83267 30.7309 14.999 30.7309Z" fill="url(#paint16_linear_804_12255)"/>
<path d="M14.9991 28.8325C19.1171 28.8325 22.4553 25.4943 22.4553 21.3763C22.4553 17.2584 19.1171 13.9202 14.9991 13.9202C10.8812 13.9202 7.54297 17.2584 7.54297 21.3763C7.54297 25.4943 10.8812 28.8325 14.9991 28.8325Z" fill="url(#paint17_linear_804_12255)"/>
<path d="M14.9988 27.7777C18.5341 27.7777 21.4 24.9118 21.4 21.3765C21.4 17.8412 18.5341 14.9753 14.9988 14.9753C11.4636 14.9753 8.59766 17.8412 8.59766 21.3765C8.59766 24.9118 11.4636 27.7777 14.9988 27.7777Z" fill="url(#paint18_linear_804_12255)"/>
<path d="M5.64453 21.3764C5.64453 26.5428 9.83265 30.7309 14.999 30.7309C20.1654 30.7309 24.3535 26.5428 24.3535 21.3764C24.3535 21.3401 24.3525 21.3041 24.3521 21.2678H5.64588C5.64547 21.3041 5.64453 21.3401 5.64453 21.3764Z" fill="url(#paint19_linear_804_12255)"/>
<path d="M17.6221 30.3576C20.5697 29.498 22.9152 27.2271 23.8784 24.3251L19.3223 19.7691L18.2952 19.8195L15.5231 17.0474L12.1445 24.88L17.6221 30.3576Z" fill="url(#paint20_linear_804_12255)"/>
<path d="M18.8362 19.3437L17.0017 18.9005C16.8311 18.8592 16.6819 18.7558 16.5835 18.6104L15.526 17.0471C15.398 16.8581 15.2021 16.7566 15.0005 16.7402C14.7988 16.7566 14.6028 16.8581 14.4749 17.0471L13.4174 18.6104C13.3191 18.7558 13.1699 18.8592 12.9992 18.9005L11.1647 19.3437C10.6671 19.4639 10.4597 20.0579 10.7743 20.4618L11.9342 21.9506C12.0421 22.0891 12.0945 22.2629 12.0809 22.4379L11.9356 24.3196C11.8962 24.8301 12.3969 25.2109 12.8783 25.0364L14.6527 24.3934C14.7648 24.3527 14.8844 24.3422 15.0005 24.3602C15.1166 24.3423 15.2361 24.3528 15.3482 24.3934L17.1226 25.0364C17.6039 25.2108 18.1048 24.8301 18.0653 24.3196L17.92 22.4379C17.9065 22.2629 17.9588 22.0891 18.0667 21.9506L19.2266 20.4618C19.5412 20.0579 19.3339 19.4639 18.8362 19.3437Z" fill="url(#paint21_linear_804_12255)"/>
<path d="M15.3478 24.3934L17.1222 25.0364C17.6035 25.2108 18.1043 24.8301 18.0649 24.3196L17.9195 22.4379C17.906 22.2629 17.9584 22.0891 18.0662 21.9506L19.2262 20.4618C19.5408 20.0579 19.3334 19.4639 18.8358 19.3437L17.0012 18.9005C16.8306 18.8592 16.6815 18.7558 16.5831 18.6104L15.5255 17.0471C15.3976 16.8581 15.2016 16.7566 15 16.7402V24.3602C15.1161 24.3422 15.2357 24.3527 15.3478 24.3934Z" fill="url(#paint22_linear_804_12255)"/>
<path d="M18.8372 19.3435L17.0027 18.9003C16.94 18.8852 16.8804 18.8614 16.825 18.8306L12.1484 24.8796C12.3319 25.0569 12.6087 25.1343 12.8793 25.0363L14.6537 24.3932C14.7658 24.3526 14.8854 24.3421 15.0014 24.3601C15.1176 24.3422 15.2371 24.3526 15.3492 24.3932L17.1236 25.0363C17.6049 25.2107 18.1057 24.8299 18.0663 24.3195L17.921 22.4378C17.9074 22.2627 17.9598 22.089 18.0677 21.9504L19.2276 20.4616C19.5422 20.0577 19.3349 19.4637 18.8372 19.3435Z" fill="url(#paint23_linear_804_12255)"/>
<path d="M11.1647 19.3438L12.9992 18.9005C13.0619 18.8854 13.1215 18.8617 13.1769 18.8308L17.8535 24.8798C17.67 25.0571 17.3932 25.1346 17.1226 25.0365L15.3482 24.3935C15.2361 24.3528 15.1165 24.3423 15.0005 24.3603C14.8843 24.3424 14.7648 24.3529 14.6527 24.3935L12.8783 25.0365C12.397 25.2109 11.8962 24.8302 11.9356 24.3198L12.0809 22.438C12.0945 22.263 12.0421 22.0892 11.9342 21.9507L10.7743 20.4619C10.4597 20.0579 10.6671 19.464 11.1647 19.3438Z" fill="url(#paint24_linear_804_12255)"/>
<path d="M10.6757 19.769C10.5884 19.989 10.6094 20.2512 10.7735 20.462L11.9335 21.9508C12.0414 22.0893 12.0937 22.2631 12.0802 22.4382L11.9348 24.3199C11.8954 24.8303 12.3962 25.2111 12.8775 25.0366L14.652 24.3936C14.7641 24.3529 14.8837 24.3425 14.9997 24.3605C15.1158 24.3425 15.2354 24.353 15.3475 24.3936L17.1219 25.0366C17.6032 25.211 18.104 24.8303 18.0646 24.3199L17.9193 22.4382C17.9117 22.341 17.9252 22.2445 17.9565 22.154L10.6757 19.769Z" fill="url(#paint25_linear_804_12255)"/>
<path d="M19.3247 19.769C19.412 19.989 19.3911 20.2512 19.2268 20.462L18.0669 21.9508C17.959 22.0893 17.9067 22.2631 17.9202 22.4382L18.0655 24.3199C18.105 24.8303 17.6041 25.2111 17.1228 25.0366L15.3484 24.3936C15.2363 24.3529 15.1167 24.3425 15.0007 24.3605C14.8845 24.3425 14.765 24.353 14.6529 24.3936L12.8785 25.0366C12.3972 25.211 11.8964 24.8303 11.9358 24.3199L12.0811 22.4382C12.0887 22.341 12.0752 22.2445 12.0439 22.154L19.3247 19.769Z" fill="url(#paint26_linear_804_12255)"/>
<path d="M14.9992 12.022C14.9603 12.022 14.9218 12.023 14.8831 12.0234L13.4395 13.4671L23.9783 24.006C24.2222 23.1717 24.3536 22.2894 24.3536 21.3764C24.3536 16.2101 20.1655 12.022 14.9992 12.022Z" fill="url(#paint27_linear_804_12255)"/>
<path d="M9.35352 0.927002V5.86818L15.0006 11.5152L20.6476 5.86818V0.927002H9.35352Z" fill="url(#paint28_linear_804_12255)"/>
<path d="M9.35352 0.927002V2.46477L14.9817 8.09294C14.9921 8.10336 15.009 8.10336 15.0195 8.09294L20.6476 2.46477V0.927002H9.35352Z" fill="url(#paint29_linear_804_12255)"/>
<path d="M9.35352 0.927002V2.46477L14.9817 8.09294C14.9921 8.10336 15.009 8.10336 15.0195 8.09294L20.6476 2.46477V0.927002H9.35352Z" fill="url(#paint30_linear_804_12255)"/>
<path d="M15.0006 8.98276C14.7678 8.98276 14.535 8.89418 14.3578 8.71694L9.35352 3.71265V5.86829L15.0006 11.5154L20.6476 5.86829V3.71265L15.6433 8.71694C15.4662 8.89412 15.2334 8.98276 15.0006 8.98276Z" fill="url(#paint31_linear_804_12255)"/>
<path d="M15.0006 8.98276C14.7678 8.98276 14.535 8.89418 14.3578 8.71694L9.35352 3.71265V5.86829L15.0006 11.5154L20.6476 5.86829V3.71265L15.6433 8.71694C15.4662 8.89412 15.2334 8.98276 15.0006 8.98276Z" fill="url(#paint32_linear_804_12255)"/>
<path d="M15.0006 8.98276C15.2334 8.98276 15.4662 8.89418 15.6433 8.71694L20.6476 3.71265V5.86829L15.0006 11.5154L9.35352 5.86829V3.71265L14.3578 8.71694C14.535 8.89412 14.7678 8.98276 15.0006 8.98276Z" fill="url(#paint33_linear_804_12255)"/>
<path d="M14.3808 10.2325L9.57527 5.427C9.21491 5.06665 8.63062 5.06665 8.27026 5.427C7.90991 5.78736 7.90991 6.37165 8.27026 6.732L15 13.4619L21.7299 6.73206C22.0902 6.37171 22.0902 5.78741 21.7299 5.42706C21.3695 5.06671 20.7852 5.06671 20.4249 5.42706L15.6193 10.2326C15.2773 10.5746 14.7228 10.5746 14.3808 10.2325Z" fill="url(#paint34_linear_804_12255)"/>
<path d="M8.27051 5.43794L14.2917 11.4592C14.6831 11.8505 15.3176 11.8505 15.709 11.4592L21.7302 5.43794C21.7319 5.43618 21.7333 5.43424 21.7351 5.43247C21.7334 5.43071 21.7319 5.42877 21.7302 5.427C21.3698 5.06665 20.7855 5.06665 20.4252 5.427L15.6196 10.2325C15.2776 10.5745 14.7231 10.5745 14.3811 10.2325L9.57557 5.427C9.21521 5.06665 8.63092 5.06665 8.27057 5.427C8.2688 5.42877 8.26739 5.43071 8.26562 5.43247C8.26733 5.43424 8.26874 5.43618 8.27051 5.43794Z" fill="url(#paint35_linear_804_12255)"/>
<path d="M15.0006 13.462L19.7511 8.71143H17.1411L15.6198 10.2327C15.2778 10.5747 14.7233 10.5747 14.3813 10.2327L12.8601 8.71143H10.25L15.0006 13.462Z" fill="url(#paint36_linear_804_12255)"/>
<path d="M14.4121 12.8736L15.0003 13.4618L21.0254 7.43677H18.4153L15.6196 10.2325C15.2876 10.5645 14.7559 10.5732 14.4121 10.2605V12.8736Z" fill="url(#paint37_linear_804_12255)"/>
<path d="M15.0007 14.1132C16.2189 14.1132 17.2065 13.1256 17.2065 11.9074C17.2065 10.6892 16.2189 9.70166 15.0007 9.70166C13.7825 9.70166 12.7949 10.6892 12.7949 11.9074C12.7949 13.1256 13.7825 14.1132 15.0007 14.1132Z" fill="url(#paint38_linear_804_12255)"/>
<path d="M15.0009 13.172C15.6993 13.172 16.2655 12.6058 16.2655 11.9074C16.2655 11.209 15.6993 10.6428 15.0009 10.6428C14.3025 10.6428 13.7363 11.209 13.7363 11.9074C13.7363 12.6058 14.3025 13.172 15.0009 13.172Z" fill="url(#paint39_linear_804_12255)"/>
<path d="M21.5008 2.92702H8.50057C8.12704 2.92702 7.82422 2.62419 7.82422 2.25066V1.40731C7.82422 1.03378 8.12704 0.730957 8.50057 0.730957H21.5009C21.8743 0.730957 22.1772 1.03378 22.1772 1.40731V2.25072C22.1772 2.62425 21.8743 2.92702 21.5008 2.92702Z" fill="url(#paint40_linear_804_12255)"/>
</g>
<defs>
<linearGradient id="paint0_linear_804_12255" x1="4.27741" y1="22.1094" x2="6.21859" y2="24.7859" gradientUnits="userSpaceOnUse">
<stop stop-color="#FEF0AE"/>
<stop offset="1" stop-color="#FBC56D"/>
</linearGradient>
<linearGradient id="paint1_linear_804_12255" x1="4.10065" y1="23.8259" x2="7.15947" y2="25.2377" gradientUnits="userSpaceOnUse">
<stop stop-color="#DC8758" stop-opacity="0"/>
<stop offset="0.9957" stop-color="#DC8758" stop-opacity="0.996"/>
<stop offset="1" stop-color="#DC8758"/>
</linearGradient>
<linearGradient id="paint2_linear_804_12255" x1="2.28641" y1="19.8282" x2="5.49229" y2="22.2105" gradientUnits="userSpaceOnUse">
<stop stop-color="#FEF0AE"/>
<stop offset="1" stop-color="#FBC56D"/>
</linearGradient>
<linearGradient id="paint3_linear_804_12255" x1="3.63041" y1="22.4929" x2="6.06176" y2="22.4538" gradientUnits="userSpaceOnUse">
<stop stop-color="#DC8758" stop-opacity="0"/>
<stop offset="0.9957" stop-color="#DC8758" stop-opacity="0.996"/>
<stop offset="1" stop-color="#DC8758"/>
</linearGradient>
<linearGradient id="paint4_linear_804_12255" x1="8.72745" y1="14.3478" x2="7.99215" y2="17.7301" gradientUnits="userSpaceOnUse">
<stop stop-color="#FEF0AE"/>
<stop offset="1" stop-color="#FBC56D"/>
</linearGradient>
<linearGradient id="paint5_linear_804_12255" x1="5.55015" y1="14.6884" x2="7.4325" y2="16.6099" gradientUnits="userSpaceOnUse">
<stop stop-color="#DC8758" stop-opacity="0"/>
<stop offset="0.9957" stop-color="#DC8758" stop-opacity="0.996"/>
<stop offset="1" stop-color="#DC8758"/>
</linearGradient>
<linearGradient id="paint6_linear_804_12255" x1="4.41928" y1="15.1603" x2="6.03693" y2="20.2191" gradientUnits="userSpaceOnUse">
<stop stop-color="#FEF0AE"/>
<stop offset="1" stop-color="#FBC56D"/>
</linearGradient>
<linearGradient id="paint7_linear_804_12255" x1="4.74667" y1="17.9149" x2="6.82508" y2="19.7189" gradientUnits="userSpaceOnUse">
<stop stop-color="#DC8758" stop-opacity="0"/>
<stop offset="0.9957" stop-color="#DC8758" stop-opacity="0.996"/>
<stop offset="1" stop-color="#DC8758"/>
</linearGradient>
<linearGradient id="paint8_linear_804_12255" x1="25.7215" y1="22.1094" x2="23.7803" y2="24.7859" gradientUnits="userSpaceOnUse">
<stop stop-color="#FEF0AE"/>
<stop offset="1" stop-color="#FBC56D"/>
</linearGradient>
<linearGradient id="paint9_linear_804_12255" x1="25.8983" y1="23.8259" x2="22.8395" y2="25.2377" gradientUnits="userSpaceOnUse">
<stop stop-color="#DC8758" stop-opacity="0"/>
<stop offset="0.9957" stop-color="#DC8758" stop-opacity="0.996"/>
<stop offset="1" stop-color="#DC8758"/>
</linearGradient>
<linearGradient id="paint10_linear_804_12255" x1="27.7127" y1="19.8282" x2="24.5068" y2="22.2105" gradientUnits="userSpaceOnUse">
<stop stop-color="#FEF0AE"/>
<stop offset="1" stop-color="#FBC56D"/>
</linearGradient>
<linearGradient id="paint11_linear_804_12255" x1="26.3687" y1="22.4929" x2="23.9373" y2="22.4538" gradientUnits="userSpaceOnUse">
<stop stop-color="#DC8758" stop-opacity="0"/>
<stop offset="0.9957" stop-color="#DC8758" stop-opacity="0.996"/>
<stop offset="1" stop-color="#DC8758"/>
</linearGradient>
<linearGradient id="paint12_linear_804_12255" x1="21.2725" y1="14.3478" x2="22.0078" y2="17.7301" gradientUnits="userSpaceOnUse">
<stop stop-color="#FEF0AE"/>
<stop offset="1" stop-color="#FBC56D"/>
</linearGradient>
<linearGradient id="paint13_linear_804_12255" x1="24.4498" y1="14.6884" x2="22.5674" y2="16.6099" gradientUnits="userSpaceOnUse">
<stop stop-color="#DC8758" stop-opacity="0"/>
<stop offset="0.9957" stop-color="#DC8758" stop-opacity="0.996"/>
<stop offset="1" stop-color="#DC8758"/>
</linearGradient>
<linearGradient id="paint14_linear_804_12255" x1="25.5799" y1="15.1603" x2="23.9623" y2="20.2191" gradientUnits="userSpaceOnUse">
<stop stop-color="#FEF0AE"/>
<stop offset="1" stop-color="#FBC56D"/>
</linearGradient>
<linearGradient id="paint15_linear_804_12255" x1="25.2541" y1="17.9149" x2="23.1756" y2="19.7189" gradientUnits="userSpaceOnUse">
<stop stop-color="#DC8758" stop-opacity="0"/>
<stop offset="0.9957" stop-color="#DC8758" stop-opacity="0.996"/>
<stop offset="1" stop-color="#DC8758"/>
</linearGradient>
<linearGradient id="paint16_linear_804_12255" x1="9.23159" y1="15.609" x2="19.0972" y2="25.4747" gradientUnits="userSpaceOnUse">
<stop stop-color="#FEF0AE"/>
<stop offset="1" stop-color="#FBC56D"/>
</linearGradient>
<linearGradient id="paint17_linear_804_12255" x1="19.8419" y1="26.219" x2="10.0151" y2="16.3923" gradientUnits="userSpaceOnUse">
<stop stop-color="#FEF0AE"/>
<stop offset="1" stop-color="#FBC56D"/>
</linearGradient>
<linearGradient id="paint18_linear_804_12255" x1="10.3454" y1="16.723" x2="18.0052" y2="24.3829" gradientUnits="userSpaceOnUse">
<stop stop-color="#FEF0AE"/>
<stop offset="1" stop-color="#FBC56D"/>
</linearGradient>
<linearGradient id="paint19_linear_804_12255" x1="14.999" y1="24.1134" x2="14.999" y2="30.2534" gradientUnits="userSpaceOnUse">
<stop stop-color="#DC8758" stop-opacity="0"/>
<stop offset="0.9957" stop-color="#DC8758" stop-opacity="0.996"/>
<stop offset="1" stop-color="#DC8758"/>
</linearGradient>
<linearGradient id="paint20_linear_804_12255" x1="20.6011" y1="26.2382" x2="12.8755" y2="21.3754" gradientUnits="userSpaceOnUse">
<stop stop-color="#DC8758" stop-opacity="0"/>
<stop offset="0.9957" stop-color="#DC8758" stop-opacity="0.996"/>
<stop offset="1" stop-color="#DC8758"/>
</linearGradient>
<linearGradient id="paint21_linear_804_12255" x1="13.0519" y1="19.5983" x2="16.5658" y2="23.1121" gradientUnits="userSpaceOnUse">
<stop stop-color="#FBC56D"/>
<stop offset="1" stop-color="#C5715A"/>
</linearGradient>
<linearGradient id="paint22_linear_804_12255" x1="17.1055" y1="20.5564" x2="12.2488" y2="22.5641" gradientUnits="userSpaceOnUse">
<stop stop-color="#8C3D27" stop-opacity="0"/>
<stop offset="1" stop-color="#8C3D27"/>
</linearGradient>
<linearGradient id="paint23_linear_804_12255" x1="15.8388" y1="22.2797" x2="13.1799" y2="21.1401" gradientUnits="userSpaceOnUse">
<stop stop-color="#8C3D27" stop-opacity="0"/>
<stop offset="1" stop-color="#8C3D27"/>
</linearGradient>
<linearGradient id="paint24_linear_804_12255" x1="14.1631" y1="22.2799" x2="16.822" y2="21.1403" gradientUnits="userSpaceOnUse">
<stop stop-color="#8C3D27" stop-opacity="0"/>
<stop offset="1" stop-color="#8C3D27"/>
</linearGradient>
<linearGradient id="paint25_linear_804_12255" x1="14.2214" y1="22.4135" x2="15.9307" y2="19.6663" gradientUnits="userSpaceOnUse">
<stop stop-color="#8C3D27" stop-opacity="0"/>
<stop offset="1" stop-color="#8C3D27"/>
</linearGradient>
<linearGradient id="paint26_linear_804_12255" x1="15.6472" y1="22.0665" x2="15.5048" y2="19.3805" gradientUnits="userSpaceOnUse">
<stop stop-color="#8C3D27" stop-opacity="0"/>
<stop offset="1" stop-color="#8C3D27"/>
</linearGradient>
<linearGradient id="paint27_linear_804_12255" x1="19.6088" y1="17.4246" x2="16.001" y2="11.1109" gradientUnits="userSpaceOnUse">
<stop stop-color="#DC8758" stop-opacity="0"/>
<stop offset="0.9957" stop-color="#DC8758" stop-opacity="0.996"/>
<stop offset="1" stop-color="#DC8758"/>
</linearGradient>
<linearGradient id="paint28_linear_804_12255" x1="15.4189" y1="4.06483" x2="17.7425" y2="7.77071" gradientUnits="userSpaceOnUse">
<stop stop-color="#F9F5F3"/>
<stop offset="1" stop-color="#D8E8F0"/>
</linearGradient>
<linearGradient id="paint29_linear_804_12255" x1="13.1013" y1="-0.481998" x2="20.317" y2="7.79247" gradientUnits="userSpaceOnUse">
<stop stop-color="#FD4755"/>
<stop offset="1" stop-color="#A72B2B"/>
</linearGradient>
<linearGradient id="paint30_linear_804_12255" x1="15.0006" y1="4.64271" x2="15.0006" y2="2.69953" gradientUnits="userSpaceOnUse">
<stop stop-color="#A72B2B" stop-opacity="0"/>
<stop offset="1" stop-color="#42210B"/>
</linearGradient>
<linearGradient id="paint31_linear_804_12255" x1="11.5685" y1="0.854764" x2="18.7842" y2="9.12924" gradientUnits="userSpaceOnUse">
<stop stop-color="#FD4755"/>
<stop offset="1" stop-color="#A72B2B"/>
</linearGradient>
<linearGradient id="paint32_linear_804_12255" x1="17.2356" y1="7.02541" x2="18.2397" y2="8.02953" gradientUnits="userSpaceOnUse">
<stop stop-color="#A72B2B" stop-opacity="0"/>
<stop offset="1" stop-color="#42210B"/>
</linearGradient>
<linearGradient id="paint33_linear_804_12255" x1="12.7656" y1="7.02541" x2="11.7615" y2="8.02953" gradientUnits="userSpaceOnUse">
<stop stop-color="#A72B2B" stop-opacity="0"/>
<stop offset="1" stop-color="#42210B"/>
</linearGradient>
<linearGradient id="paint34_linear_804_12255" x1="20.0992" y1="11.1787" x2="8.03685" y2="-0.883644" gradientUnits="userSpaceOnUse">
<stop stop-color="#FEF0AE"/>
<stop offset="1" stop-color="#FBC56D"/>
</linearGradient>
<linearGradient id="paint35_linear_804_12255" x1="15.0003" y1="5.53489" x2="15.0003" y2="13.7725" gradientUnits="userSpaceOnUse">
<stop stop-color="#FEF0AE"/>
<stop offset="1" stop-color="#FBC56D"/>
</linearGradient>
<linearGradient id="paint36_linear_804_12255" x1="15.0006" y1="10.3192" x2="15.0006" y2="13.0277" gradientUnits="userSpaceOnUse">
<stop stop-color="#DC8758" stop-opacity="0"/>
<stop offset="0.9957" stop-color="#DC8758" stop-opacity="0.996"/>
<stop offset="1" stop-color="#DC8758"/>
</linearGradient>
<linearGradient id="paint37_linear_804_12255" x1="17.7808" y1="8.78553" x2="16.1337" y2="10.462" gradientUnits="userSpaceOnUse">
<stop stop-color="#DC8758" stop-opacity="0"/>
<stop offset="0.9957" stop-color="#DC8758" stop-opacity="0.996"/>
<stop offset="1" stop-color="#DC8758"/>
</linearGradient>
<linearGradient id="paint38_linear_804_12255" x1="13.736" y1="10.6427" x2="16.8554" y2="13.7621" gradientUnits="userSpaceOnUse">
<stop stop-color="#FBC56D"/>
<stop offset="1" stop-color="#C5715A"/>
</linearGradient>
<linearGradient id="paint39_linear_804_12255" x1="16.2362" y1="13.1427" x2="13.314" y2="10.2205" gradientUnits="userSpaceOnUse">
<stop stop-color="#FBC56D"/>
<stop offset="1" stop-color="#C5715A"/>
</linearGradient>
<linearGradient id="paint40_linear_804_12255" x1="15.0007" y1="1.3976" x2="15.0007" y2="2.62337" gradientUnits="userSpaceOnUse">
<stop stop-color="#FEF0AE"/>
<stop offset="1" stop-color="#FBC56D"/>
</linearGradient>
<clipPath id="clip0_804_12255">
<rect width="30" height="30" fill="white" transform="translate(0 0.730957)"/>
</clipPath>
</defs>
</svg>
