<svg width="24" height="24" viewBox="0 0 24 24" fill="none" xmlns="http://www.w3.org/2000/svg">
<g clip-path="url(#clip0_952_6312)">
<path d="M3.09846 0.406982C1.5481 0.406982 0.29322 1.66412 0.292969 3.21096C0.292969 4.75931 1.54785 6.0162 3.09871 6.0162C4.6453 6.0162 5.90194 4.75931 5.90194 3.21096C5.90194 1.66387 4.64505 0.406982 3.09846 0.406982Z" fill="#321313"/>
<path d="M0.679688 8.14331H5.51736V23.7081H0.679688V8.14331Z" fill="#321313"/>
<path d="M17.8287 7.75659C15.4754 7.75659 13.8975 9.04684 13.2516 10.2704H13.1869V8.14362H8.54713H8.54688V23.7081H13.3803V16.0083C13.3803 13.9783 13.7668 12.0121 16.2836 12.0121C18.7643 12.0121 18.7974 14.3337 18.7974 16.1384V23.7079H23.6315V15.1708C23.6315 10.9802 22.7273 7.75659 17.8287 7.75659Z" fill="#321313"/>
</g>
<defs>
<clipPath id="clip0_952_6312">
<rect width="23.3419" height="23.3419" fill="white" transform="translate(0.292969 0.386963)"/>
</clipPath>
</defs>
</svg>
