<svg width="24" height="25" viewBox="0 0 24 25" fill="none" xmlns="http://www.w3.org/2000/svg">
<path d="M12 22.73C11.7667 22.73 11.5667 22.6633 11.4 22.53C11.2333 22.3966 11.1083 22.2216 11.025 22.005C10.7083 21.0716 10.3083 20.1966 9.825 19.38C9.35833 18.5633 8.7 17.605 7.85 16.505C7 15.405 6.30833 14.355 5.775 13.355C5.25833 12.355 5 11.1466 5 9.72998C5 7.77998 5.675 6.12998 7.025 4.77998C8.39167 3.41331 10.05 2.72998 12 2.72998C13.95 2.72998 15.6 3.41331 16.95 4.77998C18.3167 6.12998 19 7.77998 19 9.72998C19 11.2466 18.7083 12.5133 18.125 13.53C17.5583 14.53 16.9 15.5216 16.15 16.505C15.25 17.705 14.5667 18.705 14.1 19.505C13.65 20.2883 13.275 21.1216 12.975 22.005C12.8917 22.2383 12.7583 22.4216 12.575 22.555C12.4083 22.6716 12.2167 22.73 12 22.73ZM12 12.23C12.7 12.23 13.2917 11.9883 13.775 11.505C14.2583 11.0216 14.5 10.43 14.5 9.72998C14.5 9.02998 14.2583 8.43831 13.775 7.95498C13.2917 7.47165 12.7 7.22998 12 7.22998C11.3 7.22998 10.7083 7.47165 10.225 7.95498C9.74167 8.43831 9.5 9.02998 9.5 9.72998C9.5 10.43 9.74167 11.0216 10.225 11.505C10.7083 11.9883 11.3 12.23 12 12.23Z" fill="#8F3534"/>
</svg>
