<svg width="665" height="367" viewBox="0 0 665 367" fill="none" xmlns="http://www.w3.org/2000/svg">
<path opacity="0.74" d="M542.883 81.7948L546.99 74.8189L547.367 69.9076L565.329 68.1298L568.385 65.4541L566.475 57.8095L569.34 49.0182L584.623 43.6669L592.303 54.0446L602.293 64.5941L603.917 69.8499L608.501 81.1257L603.917 80.5005L596.771 79.5257L585.533 74.7642L542.883 81.7948Z" fill="#F2F2F2" stroke="#A9A9A9" stroke-width="1.70623" stroke-miterlimit="10"/>
<path d="M382.755 158.087L385.497 163.905L387.384 173.722L388.61 201.745L379.074 200.192L360.735 204.014L309.158 191.4L310.304 165.791H268.277L269.314 160.153L382.755 158.087Z" fill="#FCFCFC" stroke="#A9A9A9" stroke-width="1.70623" stroke-miterlimit="10"/>
<path d="M149.554 91.5419L185.085 95.5554L180.978 105.971L203.997 107.405L185.754 157.382L118.512 150.884L149.554 91.5419Z" fill="white" stroke="#A9A9A9" stroke-width="1.70623" stroke-miterlimit="10"/>
<path d="M167.317 21.4017L161.586 30.1931L164.069 32.2954L162.732 36.3089L166.839 42.138L171.901 45.1003L164.451 53.1272L165.216 55.8027L170.946 54.8472L172.475 58.2873L172.666 62.683L175.34 66.8876L189.763 66.9831L193.774 65.6453L195.74 68.638L198.168 62.0141L274.558 66.392L281.457 28.7597L167.317 21.4017Z" fill="#F0DFDF" stroke="#A9A9A9" stroke-width="1.70623" stroke-miterlimit="10"/>
<path opacity="0.51" d="M196.453 231.266L255.671 231.153L268.279 165.791H310.305L309.159 191.4L360.737 204.014L379.076 200.192L395.409 202.772L400.853 225.419L410.022 242.62L407.73 263.26L387.099 268.612L380.986 278.932L359.591 290.399L348.129 306.835L345.837 317.155L354.624 342.765L335.903 337.796L319.093 325.182L312.98 313.715L311.452 308.364L296.933 293.457L288.719 274.536L275.92 270.14L266.751 269.758L261.02 267.847L251.659 276.83L231.219 270.14L228.067 270.427L224.619 260.368L219.376 249.5L209.06 241.855L202.947 233.064L196.453 231.266Z" fill="#F8E5CF" stroke="#A9A9A9" stroke-width="1.70623" stroke-miterlimit="10"/>
<path opacity="0.26" d="M155.57 239.371L185.753 157.382L269.314 160.153L255.67 231.153L196.546 231.248L187.568 232.968L171.33 233.16L169.038 243.48L163.976 242.62L155.57 239.371Z" fill="#F8E5CF" stroke="#A9A9A9" stroke-width="1.70623" stroke-miterlimit="10"/>
<path opacity="0.26" d="M80.6447 82.7174L57.286 117.151L94.1819 175.911L96.829 184.998L83.0749 192.834L81.3557 206.785L73.428 210.13L54.0442 207.311L40.571 205.352L37.5145 192.929L14.9731 175.347L9.24219 168.084L10.8659 161.3L9.52869 141.232L15.8327 138.557L11.439 132.823L15.8327 127.09L12.9672 117.916L13.5403 108.169L25.1931 86.9551L33.7894 75.8702L80.6447 82.7174Z" fill="#F8E5CF" stroke="#A9A9A9" stroke-width="1.70623" stroke-miterlimit="10"/>
<path d="M80.6478 82.7174L114.98 87.3372L149.556 91.3902L110.204 164.357L104.282 160.726L100.844 162.637L98.6469 170.76L94.1849 175.911L57.2891 117.151L80.6478 82.7174Z" fill="#F0DFDF" stroke="#A9A9A9" stroke-width="1.70623" stroke-miterlimit="10"/>
<path opacity="0.51" d="M203.997 107.405L290.151 110.845L283.881 159.888L269.315 160.153L185.875 157.491L203.997 107.405Z" fill="#F8E5CF" stroke="#A9A9A9" stroke-width="1.70623" stroke-miterlimit="10"/>
<path opacity="0.59" d="M356.63 83.3238L355.293 91.5418L357.299 95.4596L364.055 106.512L367.901 115.049L411.169 112.469L418.524 115.622L423.49 107.404L421.389 103.391L428.648 99.9509L429.985 93.8352L418.351 88.247L413.939 79.8837L356.63 83.3238Z" fill="#F8E5CF" stroke="#A9A9A9" stroke-width="1.70623" stroke-miterlimit="10"/>
<path opacity="0.39" d="M347.459 30.7666L371.338 27.8998L377.069 32.8689L387.958 31.7221L398.846 37.4557L418.809 37.7423L400.661 45.1959L396.554 51.9806L398.464 55.4207L393.307 57.1408L395.981 64.021L394.453 67.27L414.511 75.8702L413.938 79.8837L356.629 83.3238L355.005 62.5876L351.471 61.7275L354.146 57.5229L349.561 39.9401L346.695 36.8823L347.459 30.7666Z" fill="#F8E5CF" stroke="#A9A9A9" stroke-width="1.70623" stroke-miterlimit="10"/>
<path opacity="0.26" d="M288.454 122.519L372.104 120.783L376.594 124.127L375.829 126.421L381.751 129.861L384.044 154.324L382.758 158.087L283.883 159.888L288.454 122.519Z" fill="#F8E5CF" stroke="#A9A9A9" stroke-width="1.70623" stroke-miterlimit="10"/>
<path opacity="0.51" d="M281.365 28.8553L276.207 57.7139L354.147 57.5228L349.562 39.94L346.697 36.8822L347.461 30.7665L281.365 28.8553Z" fill="#F8E5CF" stroke="#A9A9A9" stroke-width="1.70623" stroke-miterlimit="10"/>
<path opacity="0.51" d="M157.003 21.5929L141.721 46.0559L144.586 51.9806L128.54 62.8741L131.214 66.1233L124.91 72.6212L114.977 87.3371L185.084 95.5553L195.742 68.638L193.776 65.6453L189.765 66.9831L175.342 66.8876L172.667 62.683L172.476 58.2874L170.948 54.8473L165.217 55.8028L164.453 53.1272L171.903 45.1004L166.936 42.2335L162.734 36.309L164.071 32.2955L161.588 30.1932L167.319 21.4018L157.003 21.5929Z" fill="#F8E5CF" stroke="#A9A9A9" stroke-width="1.70623" stroke-miterlimit="10"/>
<path opacity="0.26" d="M75.625 35.1622L78.4905 31.7221L79.0635 25.6065L83.6483 21.0196L83.8394 15.6683L89.9522 17.9617L99.6948 19.6818L100.459 25.4153L105.617 21.593L105.999 15.2862L105.617 12.4193L121.663 17.9617L157.003 21.593L141.721 46.0559L127.307 45.292L119.753 45.6737L103.133 46.0559L90.4299 45.0048L80.7828 43.7625L82.502 39.3669L75.625 35.1622Z" fill="#F8E5CF" stroke="#A9A9A9" stroke-width="1.70623" stroke-miterlimit="10"/>
<path opacity="0.33" d="M198.302 62.1097L274.561 66.392L270.571 87.4327L265.712 109.87L201.365 107.596L181.074 106.067L198.302 62.1097Z" fill="#F8E5CF" stroke="#A9A9A9" stroke-width="1.70623" stroke-miterlimit="10"/>
<path opacity="0.78" d="M270.57 87.4327L333.132 87.7194L338.099 91.924L346.122 91.1595L357.298 95.4596L355.292 91.5417L356.629 83.3237L355.005 62.5875L351.471 61.7275L354.146 57.5228L276.206 57.714L270.57 87.4327Z" fill="#F8E5CF" stroke="#A9A9A9" stroke-width="1.70623" stroke-miterlimit="10"/>
<path opacity="0.26" d="M448.516 179.073L446.224 187.865L440.875 192.069L440.016 202.103L443.803 208.219L446.606 218.443L441.257 227.999V237.555L469.148 236.791L471.44 241.76L475.648 244.531L480.132 246.06L489.683 244.34L492.931 240.326L484.525 219.303L478.317 176.398L448.516 179.073Z" fill="#F8E5CF" stroke="#A9A9A9" stroke-width="1.70623" stroke-miterlimit="10"/>
<path opacity="0.74" d="M452.814 165.791L454.533 151.266L464.562 158.051L473.731 155.375L519.196 150.024L549.911 145.878L546.323 152.699L539.159 154.324L529.894 163.784L524.545 170.664L478.316 176.398L448.516 179.073L452.814 165.791Z" fill="#F8E5CF" stroke="#A9A9A9" stroke-width="1.70623" stroke-miterlimit="10"/>
<path opacity="0.74" d="M510.75 172.375L531.897 204.014L535.622 206.212V212.71L545.937 231.057L592.835 228.095L594.841 225.706L592.458 220.843L591.689 209.365L593.313 203.154L576.884 189.394L565.04 183.66L549.758 174.104H543.263L544.791 167.224L524.542 170.664L510.75 172.375Z" fill="#F8E5CF" stroke="#A9A9A9" stroke-width="1.70623" stroke-miterlimit="10"/>
<path opacity="0.21" d="M549.913 145.878L567.798 144.212L615.763 134.065L616.971 136.162L617.005 140.085L629.135 146.106L622.835 150.038L623.404 153.177L625.697 152.03L628.085 154.61L620.256 158.925L616.336 166.173L615.958 170.104L611.37 171.524L587.491 162.16L575.647 164.644L571.062 160.631L550.813 163.115L544.432 167.286L524.547 170.664L529.896 163.784L539.161 154.324L546.324 152.699L549.913 145.878Z" fill="#F8E5CF" stroke="#A9A9A9" stroke-width="1.70623" stroke-miterlimit="10"/>
<path opacity="0.21" d="M502.672 232.49L510.313 239.371L518.774 238.99L536.874 239.476L541.172 242.056L546.036 246.824L549.768 246.07L554.441 242.62L558.453 238.415L568.243 240.639L572.016 241.091L593.315 253.227L595.899 257.536L596.186 263.269L598.478 266.996L603.063 268.429L603.535 274.918L612.518 283.049L614.81 283.622L620.254 287.635L627.704 297.095L633.527 298.044L640.311 303.402L650.337 307.791L656.357 303.975L655.591 292.979L646.421 273.103L629.229 258.96L628.083 252.844L611.124 245.472L592.647 227.904L545.94 231.057L542.979 225.801L502.672 232.49Z" fill="#F8E5CF" stroke="#A9A9A9" stroke-width="1.70623" stroke-miterlimit="10"/>
<path opacity="0.74" d="M385.477 163.784L446.988 159.197L443.549 166.46L452.814 165.791L448.516 179.073L446.224 187.865L440.875 192.069L440.206 202.103L443.802 208.219L397.607 211.85L395.41 202.772L388.613 201.745L387.387 173.722L385.477 163.784Z" fill="#F8E5CF" stroke="#A9A9A9" stroke-width="1.70623" stroke-miterlimit="10"/>
<path opacity="0.26" d="M423.195 90.5739L427.693 90.204L448.939 88.7001L453.959 87.6239L457.016 95.0774L460.359 94.7907L468.955 125.37L472.203 127.663L467.618 136.263L469.337 141.806L467.618 145.437L463.606 146.392L466.472 150.406L457.875 148.686L454.532 151.266L450.616 148.303L450.998 144.29L437.34 136.741L439.155 133.205L435.43 130.434L420.052 121.165L418.523 115.622L423.49 107.404L421.389 103.391L428.648 99.9509L429.985 93.8352L426.717 92.2251L423.195 90.5739Z" fill="#F8E5CF" stroke="#A9A9A9" stroke-width="1.70623" stroke-miterlimit="10"/>
<path opacity="0.68" d="M460.359 94.7906L466.377 94.504L490.16 92.4972L501.345 120.799L501.431 123.076L502.768 125.943L497.61 126.516L492.452 135.69L487.676 133.396L485.384 138.939H479.844L469.338 141.805L467.619 136.263L472.203 127.663L468.956 125.369L460.359 94.7906Z" fill="#F8E5CF" stroke="#A9A9A9" stroke-width="1.70623" stroke-miterlimit="10"/>
<path opacity="0.43" d="M501.345 120.799L507.162 119.636L511.173 124.223L521.107 125.369L526.074 122.503L533.81 124.509L533.142 117.151L538.109 118.489L540.019 111.991L547.373 107.309L533.428 82.0814L523.208 88.675L520.534 93.0706L505.442 88.4839L503.341 91.5417L490.16 92.4972L501.345 120.799Z" fill="#F8E5CF" stroke="#A9A9A9" stroke-width="1.70623" stroke-miterlimit="10"/>
<path opacity="0.74" d="M533.43 82.0816L546.993 74.8192L542.886 81.7949C542.886 81.7949 584.339 74.7235 585.294 74.7235C586.249 74.7235 595.037 78.9281 595.037 78.9281L594.846 84.6617L604.206 89.6307L602.487 96.7021L597.711 98.4221L547.375 107.309L533.43 82.0816Z" fill="#F8E5CF" stroke="#A9A9A9" stroke-width="1.70623" stroke-miterlimit="10"/>
<path opacity="0.21" d="M543.892 109.596L540.016 111.991L538.106 118.489L533.139 117.151L533.808 124.509L531.715 125.958L534.4 130.482L548.907 138.858L553.58 136.388L563.035 131.39L564.659 118.298L569.053 120.591L573.351 110.367L572.491 107.022L575.93 105.876L579.565 108.759L582.138 105.971L574.879 102.452L547.371 107.309L543.892 109.596Z" fill="#F8E5CF" stroke="#A9A9A9" stroke-width="1.70623" stroke-miterlimit="10"/>
<path opacity="0.74" d="M529.711 148.605L542.891 135.418L548.908 138.858L563.037 131.39L564.661 118.298L569.054 120.592L573.353 110.367L572.493 107.022L575.932 105.876L579.567 108.759L582.14 105.971L591.309 111.896V115.527L601.625 117.056L609.935 121.165L609.171 124.605L615.761 134.065L567.795 144.213L549.91 145.878L529.711 148.605Z" fill="#F8E5CF" stroke="#A9A9A9" stroke-width="1.70623" stroke-miterlimit="10"/>
<path opacity="0.74" d="M584.527 43.7625L592.303 54.0446L602.293 64.5942L608.502 62.9698L602.484 51.9806L600.287 47.8714L603.344 45.0047L599.619 39.3668L593.315 41.0869L584.527 43.7625Z" fill="#F8E5CF" stroke="#A9A9A9" stroke-width="1.70623" stroke-miterlimit="10"/>
<path d="M603.917 69.8502L624.357 66.9834L631.234 70.9969L632.953 69.0857L640.976 66.4101L638.588 64.5944L634.577 66.1235L625.151 62.4941L624.012 59.6043L621.873 57.2365L619.39 60.8677L608.501 62.97L602.293 64.5944L603.917 69.8502Z" fill="#F8E5CF" stroke="#A9A9A9" stroke-width="1.70623" stroke-miterlimit="10"/>
<path opacity="0.74" d="M601.624 37.7423L611.175 46.9159L621.873 57.2362L621.682 48.6359L626.075 46.9159L627.795 41.1823L633.525 39.4623L638.683 35.0667L636.582 30.862L632.57 31.0532L630.278 27.9953L626.266 27.6131L615.951 16.7194L610.029 16.1461L605.062 18.4394L602.005 16.7194L600.859 22.4529L601.624 28.5687L605.062 32.5821L601.624 37.7423Z" fill="#F8E5CF" stroke="#A9A9A9" stroke-width="1.70623" stroke-miterlimit="10"/>
<path opacity="0.27" d="M596.772 79.5257L608.502 81.1258L609.649 86.0949L616.335 92.4018L615.319 98.8171L614.002 103.694L609.266 101.575L607.165 102.913L597.915 98.3745L602.485 96.7019L604.204 89.6305L594.844 84.6615L595.035 78.928L596.772 79.5257Z" fill="#F8E5CF" stroke="#A9A9A9" stroke-width="1.70623" stroke-miterlimit="10"/>
<path opacity="0.39" d="M420.049 121.165L435.427 130.434L439.057 133.11L437.338 136.741L450.996 144.29L450.614 148.303L454.53 151.266L452.811 165.791L443.546 166.46L446.985 159.197L385.473 163.784L382.755 158.087L384.04 154.324L381.748 129.861L375.826 126.421L376.59 124.127L372.17 120.811L367.898 115.049L411.167 112.469L418.521 115.623L420.049 121.165Z" fill="#F8E5CF" stroke="#A9A9A9" stroke-width="1.70623" stroke-miterlimit="10"/>
<path d="M9.24219 168.084L10.7377 172.893L14.591 185.285L28.7272 194.84L35.9863 215.863L67.697 223.508L73.81 229.242L87.5641 232.299L112.78 248.736L144.491 254.087L161.684 259.056L171.235 251.411L200.653 247.589L210.205 256.38L218.61 261.731L222.431 278.932L245.354 291.546L257.58 279.696L284.706 284.283L291.965 291.546L298.842 308.746L306.866 318.684L311.45 330.916L321.766 337.796L333.228 351.939L354.623 359.583V342.765L335.902 337.796L319.091 325.182L312.979 313.715L311.45 308.364L296.932 293.457L288.718 274.536L275.919 270.141L266.749 269.758L261.019 267.847L251.658 276.83L231.218 270.141L227.971 270.332L224.723 260.585L219.374 249.5L209.059 241.855L202.946 233.064L196.451 231.153L187.472 232.873L171.235 233.064L168.943 243.384L163.976 242.62L155.571 239.371L120.23 236.886L101.041 227.165L76.8665 215.099L73.428 210.13L40.571 205.352L37.5145 192.929L14.9731 175.347L9.24219 168.084Z" fill="#581213"/>
<path d="M348.464 324.815L369.906 298.808L384.424 295.368L390.537 283.519L398.178 279.696L410.404 276.256L418.427 272.434L440.204 274.345L442.879 272.434L446.317 278.932L453.194 280.079L462.364 281.225L477.264 276.638L490.636 277.785L494.839 272.816L490.445 265.554L489.872 255.807L497.704 259.056L508.784 253.513L537.438 254.469L544.888 257.336L553.485 258.482L561.89 254.469L574.116 258.674L584.431 268.421L587.297 276.448L592.455 279.696L597.039 283.901L609.456 298.808L618.817 300.528L626.84 307.982L636.582 314.671L649.763 318.684L654.157 317.155L656.356 303.975L650.336 307.791L640.31 303.402L633.526 298.044L627.703 297.095L620.253 287.635L614.809 283.622L612.517 283.049L603.534 274.919L603.061 268.429L598.477 266.996L596.185 263.269L595.898 257.536L593.219 253.131L572.015 241.091L568.105 240.623L558.451 238.415L554.44 242.62L549.767 246.07L546.035 246.824L541.171 242.056L536.873 239.476L518.717 238.989L510.312 239.371L508.975 243.575L504.008 244.531L499.996 237.842L497.704 240.517L497.513 243.193L492.928 240.326L489.681 244.34L480.129 246.06L475.545 244.531L474.017 252.367L479.365 248.927L481.849 251.411L477.646 259.629L480.894 261.54L487.771 264.216L487.006 266.509L483.95 266.7L473.061 262.114L469.241 266.7L464.083 264.598L455.678 266.892L447.655 262.878L440.395 257.718L435.811 258.482L435.429 264.216L426.641 263.451L415.562 260.394L407.729 263.26L387.098 268.612L380.985 278.932L359.59 290.399L348.128 306.835L345.836 317.155L348.464 324.815Z" fill="#581213"/>
<path d="M594.843 225.706L598.186 203.058L609.648 196.56L611.367 185.093L619.2 182.227L620.919 176.684L623.784 167.32L627.414 166.173L630.661 148.59L629.133 146.106L622.833 150.038L623.402 153.177L625.695 152.03L628.178 154.515L620.254 158.925L616.334 166.173L615.956 170.104L611.367 171.524L604.681 178.404L604.49 186.814L597.995 192.547L593.124 202.963L591.691 209.365L592.461 220.843L594.843 225.706Z" fill="#581213"/>
<path d="M616.141 117.056L618.051 113.234L618.242 133.11L615.759 134.065L610.219 127.567L607.162 127.376L605.443 125.465L609.073 124.51L609.837 121.07L601.623 117.056L598.765 116.633L598.566 112.851L597.127 110.245L594.555 105.589L596.279 102.452L597.611 105.971L597.229 108.456L604.87 116.292L610.219 117.82L610.792 121.261L615.127 125.93L616.141 117.056Z" fill="#581213"/>
<path d="M613.999 103.694L622.254 88.1972L630.277 86.4772C630.277 86.4772 635.053 81.6993 636.008 80.3615C636.963 79.0237 638.683 74.0547 638.683 74.0547L640.975 66.41L632.952 69.0855L631.232 70.9967H628.367L625.12 74.0546L617.478 76.348L608.5 81.1259L609.646 86.0949L616.332 92.4017L613.999 103.694Z" fill="#581213"/>
<path d="M621.871 57.2362L621.68 48.636L626.073 46.9159L627.793 41.1824L633.523 39.4623L638.681 35.0667L638.108 49.7826L631.422 52.4583L629.321 55.5162L625.118 62.3964L621.871 57.2362Z" fill="#581213"/>
<path d="M457.014 95.0774L447.463 72.9078L447.654 69.85L444.406 65.6454L448.991 63.3521L451.856 62.9698L456.441 51.1206L476.881 45.7693L476.117 52.6495L471.532 54.5607L470.768 58.7652L465.419 60.6763L463.891 65.6454L465.037 69.4677L463.127 72.5256L471.532 84.3749L466.375 94.5041L457.014 95.0774Z" fill="#581213"/>
<path d="M418.808 37.7423L418.426 49.7827L410.976 50.1649L410.785 46.1514L400.66 45.1959L418.808 37.7423Z" fill="#581213"/>
<path opacity="0.51" d="M33.7891 75.8703L56.235 53.0317L75.72 35.2579L82.5015 39.3669L80.7822 43.7626L88.7099 44.6226L103.419 46.0495L127.307 45.292L141.721 46.056L144.586 51.9807L128.54 62.8742L131.214 66.1234L124.851 72.7081L114.977 87.3372L80.6444 82.7175L33.7891 75.8703Z" fill="#F2F2F2" stroke="#A9A9A9" stroke-width="1.70623" stroke-miterlimit="10"/>
<path d="M543.266 174.104L544.43 167.286L550.811 163.115L571.06 160.63L575.645 164.644L587.489 162.159L611.368 171.524L604.682 178.404L604.491 186.814L597.996 192.547L593.124 202.963L579.084 191.209L565.043 183.66L549.761 174.104H543.266Z" fill="#FCFCFC" stroke="#A9A9A9" stroke-width="1.70623" stroke-miterlimit="10"/>
<path opacity="0.74" d="M608.502 62.9698L600.287 47.8715L603.344 45.0048L599.523 39.2712L601.625 37.7423L621.874 57.2363L619.39 60.8675L608.502 62.9698Z" fill="#E6E6E6" stroke="#A9A9A9" stroke-width="1.70623" stroke-miterlimit="10"/>
<path d="M574.883 102.452L597.917 98.3746L596.283 102.452L594.559 105.589L598.571 112.851L598.762 116.483L591.312 115.527V111.896L582.142 105.971L574.883 102.452Z" fill="#FCFCFC" stroke="#A9A9A9" stroke-width="1.70623" stroke-miterlimit="10"/>
<path opacity="0.74" d="M597.915 98.3746L607.165 102.913L609.266 101.576L613.981 103.727L617.993 113.092L616.143 117.056L615.129 125.93L610.795 121.261L610.221 117.82L604.873 116.292L597.231 108.456L597.613 105.971L596.281 102.452L597.915 98.3746Z" fill="#F8E5CF" stroke="#A9A9A9" stroke-width="1.70623" stroke-miterlimit="10"/>
<path opacity="0.56" d="M466.376 94.5041L471.534 84.3749L463.129 72.5256L465.039 69.4677L463.893 65.6454L465.421 60.6764L470.77 58.7652L471.534 54.5607L487.581 55.3251L490.637 63.3521L488.345 68.3211L492.165 70.9967L498.66 66.4099L507.448 72.1434L505.346 77.8769L505.442 88.4839L503.341 91.5418L490.16 92.4973L466.376 94.5041Z" fill="#F8E5CF" stroke="#A9A9A9" stroke-width="1.70623" stroke-miterlimit="10"/>
<path opacity="0.51" d="M400.659 45.1958L410.784 46.1514L410.975 50.1649L418.425 49.7826L438.101 39.4623L436.955 46.1514L466.373 43.2847L476.88 45.7692L456.44 51.1205L451.855 62.9697L448.99 63.352L444.405 65.6453L447.652 69.8499L447.461 72.7166L453.956 87.6238L448.608 88.7705L423.192 90.5739L418.348 88.247L413.936 79.8836L414.509 75.8701L394.451 67.2699L395.979 64.0209L393.305 57.1407L398.462 55.4206L396.552 51.9805L400.659 45.1958Z" fill="#F8E5CF" stroke="#A9A9A9" stroke-width="1.70623" stroke-miterlimit="10"/>
<path d="M270.568 87.4327L333.035 87.6239L338.002 91.8284L346.025 91.064L357.296 95.4596L363.982 106.353L367.802 114.954L372.005 120.687L288.525 122.598L290.053 110.749L265.602 110.367L270.568 87.4327Z" fill="#FCFCFC" stroke="#A9A9A9" stroke-width="1.70623" stroke-miterlimit="10"/>
<path d="M397.605 211.85L443.801 208.219L446.604 218.444L441.256 227.999L441.35 237.555L469.05 236.695L471.343 241.664L475.545 244.531L474.017 252.367L479.366 248.927L481.849 251.411L477.647 259.629L480.894 261.54L487.771 264.216L487.007 266.509L483.951 266.701L473.062 262.114L469.241 266.701L464.083 264.598L455.678 266.892L447.655 262.878L440.396 257.718L435.811 258.483L435.429 264.216L426.642 263.452L415.562 260.394L407.73 263.26L410.022 242.62L400.853 225.419L397.605 211.85Z" fill="#FCFCFC" stroke="#A9A9A9" stroke-width="1.70623" stroke-miterlimit="10"/>
<path d="M478.312 176.398L510.749 172.375L531.896 204.014L535.526 206.116V212.614L542.976 225.802L502.669 232.491L510.31 239.371L508.973 243.576L504.006 244.531L499.994 237.842L497.702 240.518L497.511 243.193L492.926 240.326L484.521 219.304L478.312 176.398Z" fill="#FCFCFC" stroke="#A9A9A9" stroke-width="1.70623" stroke-miterlimit="10"/>
<path opacity="0.74" d="M603.914 69.8501L624.354 66.9833L631.231 70.9968H628.366L625.118 74.0548L617.477 76.3481L608.499 81.1259L603.914 69.8501Z" fill="#F8E5CF" stroke="#A9A9A9" stroke-width="1.70623" stroke-miterlimit="10"/>
<path opacity="0.74" d="M117.175 151.266L185.85 157.477L155.572 239.371L120.232 236.886L90.0493 221.597L76.8682 215.099L73.4297 210.13L81.3574 206.785L83.0767 192.834L96.8307 184.998L94.1836 175.91L98.6456 170.76L100.842 162.637L104.281 160.726L110.203 164.357L117.175 151.266Z" fill="#F8E5CF" stroke="#A9A9A9" stroke-width="1.70623" stroke-miterlimit="10"/>
<path opacity="0.74" d="M613.66 81.6993L614.615 85.3305L620.346 82.655L627.605 76.348L622.065 77.4948L617.099 80.1704L613.66 81.6993Z" fill="#F8E5CF" stroke="#A9A9A9" stroke-width="1.70623" stroke-miterlimit="10"/>
<path d="M479.843 138.939H485.383L487.675 133.396L492.451 135.69L497.608 126.516L502.766 125.943L501.429 123.076L501.343 120.799L507.16 119.636L511.171 124.223L521.105 125.37L526.072 122.503L533.808 124.51L531.715 125.959L534.401 130.482L542.89 135.418L529.71 148.605L473.73 155.375L464.56 158.051L454.531 151.266L457.874 148.686L466.471 150.406L463.605 146.392L467.617 145.437L469.336 141.806L479.843 138.939Z" fill="#FCFCFC" stroke="#A9A9A9" stroke-width="1.70623" stroke-miterlimit="10"/>
<path d="M374.312 248.907C384.653 248.907 393.037 243.574 393.037 236.994C393.037 230.415 384.653 225.081 374.312 225.081C363.97 225.081 355.586 230.415 355.586 236.994C355.586 243.574 363.97 248.907 374.312 248.907Z" fill="url(#paint0_radial_1_4057)"/>
<path d="M231.833 99.7654C243.501 99.7654 252.959 94.4318 252.959 87.8524C252.959 81.2731 243.501 75.9395 231.833 75.9395C220.166 75.9395 210.707 81.2731 210.707 87.8524C210.707 94.4318 220.166 99.7654 231.833 99.7654Z" fill="url(#paint1_radial_1_4057)"/>
<path d="M96.8291 111.006C108.126 111.006 117.283 105.973 117.283 99.7654C117.283 93.5575 108.126 88.5249 96.8291 88.5249C85.5326 88.5249 76.375 93.5575 76.375 99.7654C76.375 105.973 85.5326 111.006 96.8291 111.006Z" fill="url(#paint2_radial_1_4057)"/>
<path d="M208.377 55.5067C217.87 55.5067 225.566 51.167 225.566 45.8138C225.566 40.4605 217.87 36.1208 208.377 36.1208C198.883 36.1208 191.188 40.4605 191.188 45.8138C191.188 51.167 198.883 55.5067 208.377 55.5067Z" fill="url(#paint3_radial_1_4057)"/>
<path d="M212.829 207.46C224.497 207.46 233.956 202.126 233.956 195.547C233.956 188.967 224.497 183.634 212.829 183.634C201.162 183.634 191.703 188.967 191.703 195.547C191.703 202.126 201.162 207.46 212.829 207.46Z" fill="url(#paint4_radial_1_4057)"/>
<path d="M146.056 197.028C157.724 197.028 167.182 191.694 167.182 185.115C167.182 178.536 157.724 173.202 146.056 173.202C134.388 173.202 124.93 178.536 124.93 185.115C124.93 191.694 134.388 197.028 146.056 197.028Z" fill="url(#paint5_radial_1_4057)"/>
<path d="M510.263 229.354C520.286 229.354 528.412 224.365 528.412 218.21C528.412 212.055 520.286 207.065 510.263 207.065C500.239 207.065 492.113 212.055 492.113 218.21C492.113 224.365 500.239 229.354 510.263 229.354Z" fill="url(#paint6_radial_1_4057)"/>
<path d="M411.454 157.254C421.478 157.254 429.603 152.264 429.603 146.109C429.603 139.955 421.478 134.965 411.454 134.965C401.43 134.965 393.305 139.955 393.305 146.109C393.305 152.264 401.43 157.254 411.454 157.254Z" fill="url(#paint7_radial_1_4057)"/>
<path d="M303.157 84.6491C313.181 84.6491 321.307 79.6595 321.307 73.5046C321.307 67.3497 313.181 62.3601 303.157 62.3601C293.134 62.3601 285.008 67.3497 285.008 73.5046C285.008 79.6595 293.134 84.6491 303.157 84.6491Z" fill="url(#paint8_radial_1_4057)"/>
<path d="M34.708 132.992C44.7316 132.992 52.8574 128.003 52.8574 121.848C52.8574 115.693 44.7316 110.703 34.708 110.703C24.6844 110.703 16.5586 115.693 16.5586 121.848C16.5586 128.003 24.6844 132.992 34.708 132.992Z" fill="url(#paint9_radial_1_4057)"/>
<path d="M392.928 103.177C401.891 103.177 409.157 98.833 409.157 93.4739C409.157 88.1149 401.891 83.7705 392.928 83.7705C383.965 83.7705 376.699 88.1149 376.699 93.4739C376.699 98.833 383.965 103.177 392.928 103.177Z" fill="url(#paint10_radial_1_4057)"/>
<path d="M575.69 100.859C584.653 100.859 591.919 96.515 591.919 91.1559C591.919 85.7969 584.653 81.4525 575.69 81.4525C566.727 81.4525 559.461 85.7969 559.461 91.1559C559.461 96.515 566.727 100.859 575.69 100.859Z" fill="url(#paint11_radial_1_4057)"/>
<path d="M522.475 143.774C531.438 143.774 538.704 139.429 538.704 134.07C538.704 128.711 531.438 124.367 522.475 124.367C513.512 124.367 506.246 128.711 506.246 134.07C506.246 139.429 513.512 143.774 522.475 143.774Z" fill="url(#paint12_radial_1_4057)"/>
<path d="M490.057 89.1744C499.02 89.1744 506.286 84.83 506.286 79.471C506.286 74.1119 499.02 69.7676 490.057 69.7676C481.094 69.7676 473.828 74.1119 473.828 79.471C473.828 84.83 481.094 89.1744 490.057 89.1744Z" fill="url(#paint13_radial_1_4057)"/>
<path d="M650.184 301.709C652.093 301.709 653.641 300.885 653.641 299.869C653.641 298.853 652.093 298.029 650.184 298.029C648.274 298.029 646.727 298.853 646.727 299.869C646.727 300.885 648.274 301.709 650.184 301.709Z" fill="#F8E5CF"/>
<path opacity="0.23" d="M116.863 53.9083C118.773 53.9083 120.32 53.0846 120.32 52.0686C120.32 51.0526 118.773 50.229 116.863 50.229C114.954 50.229 113.406 51.0526 113.406 52.0686C113.406 53.0846 114.954 53.9083 116.863 53.9083Z" fill="#F8E5CF"/>
<path d="M339.531 281.329C342.607 281.329 345.1 280.002 345.1 278.365C345.1 276.728 342.607 275.401 339.531 275.401C336.455 275.401 333.961 276.728 333.961 278.365C333.961 280.002 336.455 281.329 339.531 281.329Z" fill="#F8E5CF"/>
<path d="M89.6497 73.6033C101.317 73.6033 110.776 68.2697 110.776 61.6903C110.776 55.111 101.317 49.7773 89.6497 49.7773C77.982 49.7773 68.5234 55.111 68.5234 61.6903C68.5234 68.2697 77.982 73.6033 89.6497 73.6033Z" fill="url(#paint14_radial_1_4057)"/>
<defs>
<radialGradient id="paint0_radial_1_4057" cx="0" cy="0" r="1" gradientUnits="userSpaceOnUse" gradientTransform="translate(374.312 236.993) scale(16.6905 10.7978)">
<stop offset="0.561" stop-color="#4D4D4D" stop-opacity="0.2"/>
<stop offset="0.7805" stop-color="#4D4D4D" stop-opacity="0"/>
</radialGradient>
<radialGradient id="paint1_radial_1_4057" cx="0" cy="0" r="1" gradientUnits="userSpaceOnUse" gradientTransform="translate(231.833 87.8517) scale(18.8302 10.7979)">
<stop offset="0.561" stop-color="#4D4D4D" stop-opacity="0.2"/>
<stop offset="0.7805" stop-color="#4D4D4D" stop-opacity="0"/>
</radialGradient>
<radialGradient id="paint2_radial_1_4057" cx="0" cy="0" r="1" gradientUnits="userSpaceOnUse" gradientTransform="translate(96.8291 99.7673) scale(18.2311 10.189)">
<stop offset="0.561" stop-color="#4D4D4D" stop-opacity="0.2"/>
<stop offset="0.7805" stop-color="#4D4D4D" stop-opacity="0"/>
</radialGradient>
<radialGradient id="paint3_radial_1_4057" cx="0" cy="0" r="1" gradientUnits="userSpaceOnUse" gradientTransform="translate(208.377 45.8134) scale(15.321 8.78557)">
<stop offset="0.561" stop-color="#4D4D4D" stop-opacity="0.2"/>
<stop offset="0.7805" stop-color="#4D4D4D" stop-opacity="0"/>
</radialGradient>
<radialGradient id="paint4_radial_1_4057" cx="0" cy="0" r="1" gradientUnits="userSpaceOnUse" gradientTransform="translate(212.829 195.546) scale(18.8302 10.7979)">
<stop offset="0.561" stop-color="#4D4D4D" stop-opacity="0.2"/>
<stop offset="0.7805" stop-color="#4D4D4D" stop-opacity="0"/>
</radialGradient>
<radialGradient id="paint5_radial_1_4057" cx="0" cy="0" r="1" gradientUnits="userSpaceOnUse" gradientTransform="translate(146.056 185.114) scale(18.8302 10.7979)">
<stop offset="0.561" stop-color="#4D4D4D" stop-opacity="0.2"/>
<stop offset="0.7805" stop-color="#4D4D4D" stop-opacity="0"/>
</radialGradient>
<radialGradient id="paint6_radial_1_4057" cx="0" cy="0" r="1" gradientUnits="userSpaceOnUse" gradientTransform="translate(510.263 218.209) scale(16.1769 10.101)">
<stop offset="0.561" stop-color="#4D4D4D" stop-opacity="0.2"/>
<stop offset="0.7805" stop-color="#4D4D4D" stop-opacity="0"/>
</radialGradient>
<radialGradient id="paint7_radial_1_4057" cx="0" cy="0" r="1" gradientUnits="userSpaceOnUse" gradientTransform="translate(411.454 146.108) scale(16.1769 10.101)">
<stop offset="0.561" stop-color="#4D4D4D" stop-opacity="0.2"/>
<stop offset="0.7805" stop-color="#4D4D4D" stop-opacity="0"/>
</radialGradient>
<radialGradient id="paint8_radial_1_4057" cx="0" cy="0" r="1" gradientUnits="userSpaceOnUse" gradientTransform="translate(303.157 73.5035) scale(16.1769 10.101)">
<stop offset="0.561" stop-color="#4D4D4D" stop-opacity="0.2"/>
<stop offset="0.7805" stop-color="#4D4D4D" stop-opacity="0"/>
</radialGradient>
<radialGradient id="paint9_radial_1_4057" cx="0" cy="0" r="1" gradientUnits="userSpaceOnUse" gradientTransform="translate(34.7079 121.847) scale(16.1769 10.101)">
<stop offset="0.561" stop-color="#4D4D4D" stop-opacity="0.2"/>
<stop offset="0.7805" stop-color="#4D4D4D" stop-opacity="0"/>
</radialGradient>
<radialGradient id="paint10_radial_1_4057" cx="0" cy="0" r="1" gradientUnits="userSpaceOnUse" gradientTransform="translate(392.928 93.4726) scale(14.465 8.7952)">
<stop offset="0.561" stop-color="#4D4D4D" stop-opacity="0.2"/>
<stop offset="0.7805" stop-color="#4D4D4D" stop-opacity="0"/>
</radialGradient>
<radialGradient id="paint11_radial_1_4057" cx="0" cy="0" r="1" gradientUnits="userSpaceOnUse" gradientTransform="translate(575.69 91.1546) scale(14.465 8.79519)">
<stop offset="0.561" stop-color="#4D4D4D" stop-opacity="0.2"/>
<stop offset="0.7805" stop-color="#4D4D4D" stop-opacity="0"/>
</radialGradient>
<radialGradient id="paint12_radial_1_4057" cx="0" cy="0" r="1" gradientUnits="userSpaceOnUse" gradientTransform="translate(522.475 134.069) scale(14.465 8.79519)">
<stop offset="0.561" stop-color="#4D4D4D" stop-opacity="0.2"/>
<stop offset="0.7805" stop-color="#4D4D4D" stop-opacity="0"/>
</radialGradient>
<radialGradient id="paint13_radial_1_4057" cx="0" cy="0" r="1" gradientUnits="userSpaceOnUse" gradientTransform="translate(490.057 79.4697) scale(14.465 8.79519)">
<stop offset="0.561" stop-color="#4D4D4D" stop-opacity="0.2"/>
<stop offset="0.7805" stop-color="#4D4D4D" stop-opacity="0"/>
</radialGradient>
<radialGradient id="paint14_radial_1_4057" cx="0" cy="0" r="1" gradientUnits="userSpaceOnUse" gradientTransform="translate(89.6496 61.6896) scale(18.8302 10.7979)">
<stop offset="0.561" stop-color="#4D4D4D" stop-opacity="0.2"/>
<stop offset="0.7805" stop-color="#4D4D4D" stop-opacity="0"/>
</radialGradient>
</defs>
</svg>
