<svg width="30" height="31" viewBox="0 0 30 31" fill="none" xmlns="http://www.w3.org/2000/svg">
<path d="M23.9063 23.7583H6.09381C5.69549 23.7583 5.31738 23.2642 5.2149 22.8794L2.3734 11.7384C2.28662 11.4126 2.39384 11.066 2.64925 10.8461C2.90472 10.6261 3.26343 10.5718 3.57263 10.7059L10.4242 13.6802L14.2464 7.30992C14.4053 7.04531 14.6913 6.8833 15.0001 6.8833C15.3088 6.8833 15.5948 7.04531 15.7537 7.30998L19.5759 13.6803L26.4275 10.706C26.7368 10.5718 27.0954 10.6262 27.3509 10.8461C27.6063 11.066 27.7135 11.4127 27.6268 11.7384L24.7852 22.8794C24.6827 23.2642 24.3046 23.7583 23.9063 23.7583Z" fill="#FFCB49"/>
<path d="M27.3507 10.8461C27.0953 10.6262 26.7367 10.5718 26.4274 10.706L19.5758 13.6803L15.7536 7.30998C15.5948 7.04531 15.3087 6.8833 15 6.8833V23.7583H23.9062C24.3046 23.7583 24.6826 23.2642 24.7852 22.8794L27.6267 11.7384C27.7134 11.4127 27.6062 11.066 27.3507 10.8461Z" fill="#FFAD09"/>
<path d="M10.3125 19.5396C9.82711 19.5396 9.43359 19.9331 9.43359 20.4185V22.8794C9.43359 23.3648 9.82711 23.7583 10.3125 23.7583C10.7979 23.7583 11.1914 23.3648 11.1914 22.8794V20.4185C11.1914 19.9331 10.7979 19.5396 10.3125 19.5396Z" fill="#FFAD09"/>
<path d="M19.6875 19.5396C19.2021 19.5396 18.8086 19.9331 18.8086 20.4185V22.8794C18.8086 23.3648 19.2021 23.7583 19.6875 23.7583C20.1729 23.7583 20.5664 23.3648 20.5664 22.8794V20.4185C20.5664 19.9331 20.1729 19.5396 19.6875 19.5396Z" fill="#FF8C00"/>
<path d="M15 18.1333C14.5146 18.1333 14.1211 18.5268 14.1211 19.0122V22.8794C14.1211 23.3648 14.5146 23.7583 15 23.7583C15.4854 23.7583 15.8789 23.3648 15.8789 22.8794V19.0122C15.8789 18.5268 15.4854 18.1333 15 18.1333Z" fill="#FFAD09"/>
<path d="M15 18.1333V23.7583C15.4854 23.7583 15.8789 23.3648 15.8789 22.8794V19.0122C15.8789 18.5268 15.4854 18.1333 15 18.1333Z" fill="#FF8C00"/>
<path d="M5.21484 22.8794V26.0435C5.21484 26.5288 5.60836 26.9224 6.09375 26.9224H23.9062C24.3916 26.9224 24.7852 26.5288 24.7852 26.0435V22.8794H5.21484Z" fill="#FFEB7A"/>
<path d="M15 22.8794V26.9224H23.9062C24.3916 26.9224 24.7852 26.5288 24.7852 26.0435V22.8794H15Z" fill="#FFCB49"/>
<path d="M2.63672 13.563C4.09294 13.563 5.27344 12.3825 5.27344 10.9263C5.27344 9.47005 4.09294 8.28955 2.63672 8.28955C1.1805 8.28955 0 9.47005 0 10.9263C0 12.3825 1.1805 13.563 2.63672 13.563Z" fill="#FFEB7A"/>
<path d="M27.3633 13.563C28.8195 13.563 30 12.3825 30 10.9263C30 9.47005 28.8195 8.28955 27.3633 8.28955C25.9071 8.28955 24.7266 9.47005 24.7266 10.9263C24.7266 12.3825 25.9071 13.563 27.3633 13.563Z" fill="#FFCB49"/>
<path d="M15 9.81299C16.4562 9.81299 17.6367 8.63249 17.6367 7.17627C17.6367 5.72005 16.4562 4.53955 15 4.53955C13.5438 4.53955 12.3633 5.72005 12.3633 7.17627C12.3633 8.63249 13.5438 9.81299 15 9.81299Z" fill="#FFEB7A"/>
<path d="M15 4.53955V9.81299C16.4539 9.81299 17.6367 8.63021 17.6367 7.17627C17.6367 5.72232 16.4539 4.53955 15 4.53955Z" fill="#FFCB49"/>
</svg>
