<svg width="192" height="201" viewBox="0 0 192 201" fill="none" xmlns="http://www.w3.org/2000/svg">
<path d="M191.745 169.589L180.407 171.779L187.973 180.502L191.745 169.589ZM39.6029 2.46945C40.0113 2.09765 40.0409 1.46518 39.6692 1.05679C39.2974 0.64839 38.6649 0.61872 38.2565 0.990515L39.6029 2.46945ZM38.2565 0.990515C36.8632 2.25892 35.5084 3.55388 34.1921 4.87394L35.6083 6.28614C36.9019 4.98888 38.2334 3.71616 39.6029 2.46945L38.2565 0.990515ZM26.6538 13.2097C24.2607 16.1315 22.0325 19.1474 19.9698 22.2444L21.6344 23.3531C23.6608 20.3106 25.8499 17.3476 28.2011 14.4769L26.6538 13.2097ZM14.2102 31.8945C12.4431 35.2185 10.8501 38.6136 9.43176 42.066L11.2817 42.826C12.6752 39.4342 14.2402 36.0988 15.9762 32.8333L14.2102 31.8945ZM5.67819 52.6583C4.59946 56.2551 3.70033 59.8962 2.98146 63.5674L4.94418 63.9518C5.65055 60.3445 6.53401 56.7668 7.59389 53.2329L5.67819 52.6583ZM1.3633 74.6877C1.00529 78.4184 0.82953 82.1649 0.836707 85.9127L2.8367 85.9089C2.82966 82.2261 3.00236 78.5446 3.35415 74.8787L1.3633 74.6877ZM1.4067 97.1356C1.77873 100.858 2.33304 104.567 3.0703 108.249L5.03138 107.857C4.30699 104.239 3.76234 100.594 3.39679 96.9367L1.4067 97.1356ZM5.81575 119.146C6.90467 122.716 8.17286 126.246 9.62098 129.721L11.4671 128.951C10.0445 125.538 8.79855 122.07 7.72874 118.563L5.81575 119.146ZM14.4519 139.868C16.2156 143.144 18.1517 146.355 20.2607 149.488L21.9198 148.372C19.8477 145.293 17.9456 142.138 16.2129 138.92L14.4519 139.868ZM26.9855 158.493C28.1724 159.931 29.4001 161.347 30.6685 162.74L32.1474 161.394C30.9007 160.024 29.6942 158.632 28.5277 157.22L26.9855 158.493ZM30.6685 162.74C31.9369 164.133 33.2319 165.488 34.5519 166.804L35.9641 165.388C34.6668 164.095 33.3941 162.763 32.1474 161.394L30.6685 162.74ZM42.8876 174.343C45.8095 176.736 48.8254 178.964 51.9224 181.027L53.0311 179.362C49.9886 177.336 47.0256 175.147 44.1549 172.796L42.8876 174.343ZM61.5725 186.786C64.8965 188.553 68.2916 190.146 71.744 191.565L72.504 189.715C69.1122 188.321 65.7768 186.756 62.5113 185.02L61.5725 186.786ZM82.3363 195.318C85.9331 196.397 89.5742 197.296 93.2454 198.015L93.6297 196.052C90.0224 195.346 86.4448 194.463 82.9109 193.403L82.3363 195.318ZM104.366 199.633C108.096 199.991 111.843 200.167 115.591 200.16L115.587 198.16C111.904 198.167 108.223 197.994 104.557 197.642L104.366 199.633ZM126.814 199.59C130.536 199.218 134.245 198.664 137.927 197.926L137.535 195.965C133.917 196.69 130.272 197.234 126.615 197.6L126.814 199.59ZM148.824 195.181C152.394 194.092 155.924 192.824 159.399 191.376L158.629 189.529C155.216 190.952 151.748 192.198 148.241 193.268L148.824 195.181ZM169.546 186.545C172.822 184.781 176.033 182.845 179.166 180.736L178.05 179.077C174.971 181.149 171.816 183.051 168.598 184.784L169.546 186.545ZM191.745 169.589L180.407 171.779L187.973 180.502L191.745 169.589ZM39.6029 2.46945C40.0113 2.09765 40.0409 1.46518 39.6692 1.05679C39.2974 0.64839 38.6649 0.61872 38.2565 0.990515L39.6029 2.46945ZM38.2565 0.990515C36.8632 2.25892 35.5084 3.55388 34.1921 4.87394L35.6083 6.28614C36.9019 4.98888 38.2334 3.71616 39.6029 2.46945L38.2565 0.990515ZM26.6538 13.2097C24.2607 16.1315 22.0325 19.1474 19.9698 22.2444L21.6344 23.3531C23.6608 20.3106 25.8499 17.3476 28.2011 14.4769L26.6538 13.2097ZM14.2102 31.8945C12.4431 35.2185 10.8501 38.6136 9.43176 42.066L11.2817 42.826C12.6752 39.4342 14.2402 36.0988 15.9762 32.8333L14.2102 31.8945ZM5.67819 52.6583C4.59946 56.2551 3.70033 59.8962 2.98146 63.5674L4.94418 63.9518C5.65055 60.3445 6.53401 56.7668 7.59389 53.2329L5.67819 52.6583ZM1.3633 74.6877C1.00529 78.4184 0.82953 82.1649 0.836707 85.9127L2.8367 85.9089C2.82966 82.2261 3.00236 78.5446 3.35415 74.8787L1.3633 74.6877ZM1.4067 97.1356C1.77873 100.858 2.33304 104.567 3.0703 108.249L5.03138 107.857C4.30699 104.239 3.76234 100.594 3.39679 96.9367L1.4067 97.1356ZM5.81575 119.146C6.90467 122.716 8.17286 126.246 9.62098 129.721L11.4671 128.951C10.0445 125.538 8.79855 122.07 7.72874 118.563L5.81575 119.146ZM14.4519 139.868C16.2156 143.144 18.1517 146.355 20.2607 149.488L21.9198 148.372C19.8477 145.293 17.9456 142.138 16.2129 138.92L14.4519 139.868ZM26.9855 158.493C28.1724 159.931 29.4001 161.347 30.6685 162.74L32.1474 161.394C30.9007 160.024 29.6942 158.632 28.5277 157.22L26.9855 158.493ZM30.6685 162.74C31.9369 164.133 33.2319 165.488 34.5519 166.804L35.9641 165.388C34.6668 164.095 33.3941 162.763 32.1474 161.394L30.6685 162.74ZM42.8876 174.343C45.8095 176.736 48.8254 178.964 51.9224 181.027L53.0311 179.362C49.9886 177.336 47.0256 175.147 44.1549 172.796L42.8876 174.343ZM61.5725 186.786C64.8965 188.553 68.2916 190.146 71.744 191.565L72.504 189.715C69.1122 188.321 65.7768 186.756 62.5113 185.02L61.5725 186.786ZM82.3363 195.318C85.9331 196.397 89.5742 197.296 93.2454 198.015L93.6297 196.052C90.0224 195.346 86.4448 194.463 82.9109 193.403L82.3363 195.318ZM104.366 199.633C108.096 199.991 111.843 200.167 115.591 200.16L115.587 198.16C111.904 198.167 108.223 197.994 104.557 197.642L104.366 199.633ZM126.814 199.59C130.536 199.218 134.245 198.664 137.927 197.926L137.535 195.965C133.917 196.69 130.272 197.234 126.615 197.6L126.814 199.59ZM148.824 195.181C152.394 194.092 155.924 192.824 159.399 191.376L158.629 189.529C155.216 190.952 151.748 192.198 148.241 193.268L148.824 195.181ZM169.546 186.545C172.822 184.781 176.033 182.845 179.166 180.736L178.05 179.077C174.971 181.149 171.816 183.051 168.598 184.784L169.546 186.545Z" fill="#581213"/>
</svg>
