<svg width="30" height="30" viewBox="0 0 30 30" fill="none" xmlns="http://www.w3.org/2000/svg">
<path d="M21.0469 4.95923H8.96354C5.33854 4.95923 2.92188 6.77173 2.92188 11.0009V19.4592C2.92188 23.6884 5.33854 25.5009 8.96354 25.5009H21.0469C24.6719 25.5009 27.0885 23.6884 27.0885 19.4592V11.0009C27.0885 6.77173 24.6719 4.95923 21.0469 4.95923ZM21.6148 12.318L17.8327 15.3388C17.0352 15.9792 16.0202 16.2934 15.0052 16.2934C13.9902 16.2934 12.9631 15.9792 12.1777 15.3388L8.39563 12.318C8.00896 12.0038 7.94854 11.4238 8.25063 11.0371C8.56479 10.6505 9.13271 10.578 9.51938 10.8921L13.3015 13.913C14.2198 14.6501 15.7785 14.6501 16.6969 13.913L20.479 10.8921C20.8656 10.578 21.4456 10.6384 21.7477 11.0371C22.0619 11.4238 22.0015 12.0038 21.6148 12.318Z" fill="#321313"/>
</svg>
