<svg width="30" height="31" viewBox="0 0 30 31" fill="none" xmlns="http://www.w3.org/2000/svg">
<g clip-path="url(#clip0_804_12215)">
<path d="M26.5252 9.9851L18.6888 9.25831L15.5759 2.02999C15.3579 1.52386 14.6403 1.52386 14.4224 2.02999L11.3096 9.25825L3.47318 9.9851C2.92445 10.036 2.70273 10.7185 3.11669 11.0822L9.02928 16.2763L7.29895 23.9538C7.17778 24.4914 7.75838 24.9131 8.23217 24.6318L14.9992 20.6137L21.7662 24.6318C22.24 24.9132 22.8205 24.4914 22.6994 23.9538L20.969 16.2763L26.8817 11.0822C27.2956 10.7185 27.0739 10.036 26.5252 9.9851Z" fill="#FFDC64"/>
<path d="M6.98953 1.7811C7.38902 2.33599 8.5166 4.719 9.16125 6.10779C9.26262 6.32611 8.98869 6.52334 8.81379 6.35793C7.70127 5.30605 5.79902 3.48074 5.39953 2.92579C5.08341 2.48675 5.18308 1.87456 5.62218 1.55845C6.06123 1.24233 6.67342 1.34206 6.98953 1.7811Z" fill="#FFF082"/>
<path d="M23.012 1.7811C22.6125 2.33599 21.4849 4.719 20.8402 6.10779C20.7389 6.32611 21.0128 6.52334 21.1877 6.35793C22.3002 5.30605 24.2024 3.48068 24.602 2.92579C24.9181 2.48675 24.8184 1.87456 24.3793 1.55845C23.9403 1.24233 23.3281 1.34206 23.012 1.7811Z" fill="#FFF082"/>
<path d="M29.3232 18.053C28.6731 17.841 26.0601 17.4908 24.5412 17.2986C24.3024 17.2684 24.1978 17.5893 24.4084 17.7057C25.7487 18.446 28.0656 19.7037 28.7157 19.9157C29.23 20.0834 29.783 19.8025 29.9507 19.2881C30.1185 18.7737 29.8375 18.2208 29.3232 18.053Z" fill="#FFF082"/>
<path d="M0.676088 18.053C1.32613 17.841 3.93912 17.4908 5.45805 17.2986C5.69682 17.2684 5.80147 17.5893 5.59082 17.7057C4.25061 18.446 1.93363 19.7037 1.28359 19.9157C0.769252 20.0834 0.216302 19.8025 0.0485477 19.2881C-0.119206 18.7737 0.161751 18.2208 0.676088 18.053Z" fill="#FFF082"/>
<path d="M14.0508 29.1086C14.0508 28.4249 14.528 25.8321 14.8163 24.3284C14.8616 24.092 15.1992 24.092 15.2445 24.3284C15.5327 25.8321 16.01 28.4249 16.01 29.1086C16.01 29.6496 15.5714 30.0882 15.0304 30.0882C14.4894 30.0882 14.0508 29.6496 14.0508 29.1086Z" fill="#FFF082"/>
<path d="M16.7078 4.65851L15.5759 2.02999C15.3579 1.52386 14.6403 1.52386 14.4224 2.02999L11.3095 9.25825L3.47318 9.9851C2.92445 10.036 2.70273 10.7185 3.11669 11.0822L9.02928 16.2763L7.29895 23.9538C7.17778 24.4914 7.75838 24.9131 8.23217 24.6318L9.13282 24.097C10.6093 14.5392 14.7602 7.52305 16.7078 4.65851Z" fill="#FFC850"/>
</g>
<defs>
<clipPath id="clip0_804_12215">
<rect width="30" height="30" fill="white" transform="translate(0 0.730957)"/>
</clipPath>
</defs>
</svg>
