<svg xmlns="http://www.w3.org/2000/svg" width="192" height="62" viewBox="0 0 192 62" fill="none"><path d="M103.664 44.9644L103.447 21.1714C103.447 16.2462 103.52 12.8058 103.664 10.8502C103.701 10.5605 104.461 10.4157 105.946 10.4157C107.431 10.4157 108.282 10.5062 108.499 10.6873C108.753 10.8683 108.879 11.1581 108.879 11.5564C108.879 19.2339 108.952 24.3945 109.097 27.0382C109.893 26.4587 112.41 24.141 116.647 20.085C120.884 16.0289 123.438 13.6025 124.307 12.8058C125.176 11.9729 125.737 11.4297 125.991 11.1762C126.244 10.8864 126.461 10.6511 126.643 10.47C127.15 10.0354 127.566 9.81812 127.892 9.81812C128.218 9.81812 128.634 10.0897 129.141 10.6329C129.648 11.14 129.902 11.5202 129.902 11.7737C129.902 12.0272 129.793 12.2807 129.576 12.5342C129.359 12.7877 129.069 13.0955 128.707 13.4577C128.345 13.7836 128.109 14.0009 128.001 14.1096C124.633 17.6586 120.305 21.9138 115.018 26.8752C113.931 27.8168 113.388 28.3962 113.388 28.6135C113.388 28.7946 113.569 29.0119 113.931 29.2654C114.293 29.5189 114.728 29.8086 115.235 30.1345C115.742 30.4243 116.267 30.7864 116.81 31.221C117.39 31.6555 118.621 32.7058 120.504 34.3716C122.424 36.0013 123.637 37.0153 124.144 37.4137C130.336 42.5924 133.433 45.5982 133.433 46.4311C133.433 46.8295 133.034 47.3908 132.238 48.1151C131.441 48.8032 130.88 49.1472 130.554 49.1472C130.228 49.1472 129.92 49.0748 129.63 48.9299C129.341 48.7851 129.105 48.6402 128.924 48.4954C128.091 47.6986 127.584 47.246 127.403 47.1373H127.457L124.85 44.9101C123.148 43.4615 120.993 41.6327 118.386 39.4236C115.778 37.2145 114.058 35.7478 113.225 35.0235C112.392 34.2992 111.831 33.8103 111.541 33.5568C111.251 33.3033 111.016 33.1041 110.835 32.9593C110.4 32.4885 109.911 32.1807 109.368 32.0358C109.115 32.1807 108.988 33.3395 108.988 35.5124C108.988 35.5124 109.024 37.3775 109.097 41.1076L109.314 45.8336C109.314 46.9562 109.133 47.6805 108.771 48.0065C108.445 48.3324 107.775 48.4954 106.761 48.4954C105.783 48.4954 105.095 48.441 104.696 48.3324C104.334 48.1875 104.081 47.8978 103.936 47.4632C103.755 46.92 103.664 46.0871 103.664 44.9644ZM148.935 39.3693C149.514 38.7898 150.003 38.1018 150.401 37.305L151.162 35.784C151.307 35.5667 151.995 34.263 153.226 31.8728C155.797 26.8752 157.373 24.3764 157.952 24.3764C158.314 24.3764 158.803 24.5394 159.419 24.8653C160.071 25.1912 160.433 25.481 160.505 25.7345C160.505 25.9155 158.64 29.5551 154.91 36.6532C151.216 43.715 149.224 47.5357 148.935 48.1151C144.697 56.9153 142.217 61.3153 141.492 61.3153C140.913 61.3153 140.279 61.1524 139.591 60.8264C138.903 60.5367 138.523 60.2651 138.45 60.0116C138.45 59.7943 138.722 59.0881 139.265 57.8931C139.664 57.1688 140.225 56.1729 140.949 54.9054C142.651 51.9358 143.665 50.0526 143.991 49.2559C144.353 48.4954 144.716 47.8073 145.078 47.1916C145.476 46.5398 145.82 45.9422 146.11 45.399C146.399 44.8558 146.544 44.4936 146.544 44.3126C146.544 44.1315 146.092 43.4615 145.186 42.3027C144.317 41.1438 143.448 39.9487 142.579 38.7174C141.71 37.4499 140.75 36.0375 139.7 34.4803C138.65 32.9231 137.98 31.9272 137.69 31.4926L136.44 29.5913C135.245 27.8168 134.648 26.7304 134.648 26.332C134.648 25.8974 135.064 25.4628 135.897 25.0283C136.73 24.5937 137.346 24.3764 137.744 24.3764C138.143 24.3764 138.686 24.7386 139.374 25.4628C140.062 26.1509 140.859 27.1468 141.764 28.4506C142.669 29.7181 143.502 30.9313 144.263 32.0901C145.023 33.249 145.892 34.607 146.87 36.1643C147.848 37.7215 148.536 38.7898 148.935 39.3693ZM167.405 24.9739L169.958 24.9196C169.958 25.1007 170.067 25.5534 170.284 26.2777C170.502 26.2052 171.117 25.988 172.131 25.6258C174.521 24.7929 176.495 24.3764 178.052 24.3764C179.646 24.3764 181.04 24.6299 182.235 25.1369C183.43 25.6077 184.354 26.2234 185.006 26.9839C185.657 27.7082 186.183 28.6859 186.581 29.9172C187.16 31.9091 187.45 34.5527 187.45 37.8483C187.45 37.8483 187.36 40.9446 187.178 47.1373C187.178 47.8616 187.106 48.2781 186.961 48.3867C186.853 48.4954 186.346 48.5497 185.44 48.5497C184.571 48.5497 183.557 48.4773 182.398 48.3324C182.289 47.4632 182.235 45.9422 182.235 43.7693L182.289 36.8161C182.289 33.919 181.801 31.7461 180.823 30.2975C179.845 28.8127 178.161 28.0703 175.771 28.0703C173.417 28.0703 171.624 28.4143 170.393 29.1024L170.502 36.3816C170.538 39.6409 170.556 42.1759 170.556 43.9866L170.665 47.1916C170.665 47.7711 170.52 48.1513 170.23 48.3324C169.94 48.4773 169.325 48.5497 168.383 48.5497L165.558 48.441L165.341 37.0877L165.558 28.8308V26.8752C165.558 25.6077 166.174 24.9739 167.405 24.9739Z" fill="#EDA35A"></path><path d="M45.1834 55.7466C45.2914 55.7523 45.3938 55.7608 45.499 55.7665C40.3955 54.8368 40.4182 52.1358 40.1709 50.2821C39.9093 48.3203 39.6876 47.8626 39.5056 47.3536C37.9589 41.5451 31.3941 37.8717 29.4892 36.9136C28.1984 39.5605 22.731 52.5452 36.3639 58.6267C36.6596 58.7575 36.9411 58.8883 37.214 59.0191L35.5508 55.178C33.4468 53.3584 30.979 49.3154 33.3871 40.8457C33.3871 40.8457 30.3393 54.8425 45.1805 55.7466H45.1834Z" fill="#EDA35A"></path><path d="M40.0088 38.5398C30.9875 29.7346 19.5012 32.9161 17.511 33.5586C17.5593 33.5615 17.6105 33.5672 17.6617 33.57C30.2256 34.6845 36.4037 39.9358 38.9768 44.8829C40.2903 47.3508 40.7139 49.7447 40.7737 51.5444C41.3821 56.065 45.3824 55.6101 45.3653 55.6073C29.1679 58.7888 33.2734 41.2806 33.4184 40.6722C32.6792 42.1535 27.371 53.5773 36.4833 58.7461C36.4492 58.7319 36.3582 58.7035 36.2218 58.658C36.29 58.6921 36.3412 58.7177 36.3753 58.7348C36.3924 58.7404 36.4066 58.7461 36.4236 58.7518C36.4236 58.7518 36.4037 58.7461 36.3753 58.7348C20.4991 53.0086 27.2346 39.9273 28.4543 37.8092C28.3832 37.8774 28.1529 38.1134 27.8203 38.4972C26.6148 39.9444 24.5165 42.887 23.7773 46.5575C23.3366 48.9173 23.4702 51.6013 24.7923 54.4245C18.8899 49.5684 18.1592 45.3805 18.0995 43.6092C18.0341 43.9731 16.732 51.7889 25.7675 57.8477C26.7342 58.4703 27.5928 58.9252 28.1955 59.2181C28.2126 59.2351 28.2268 59.2522 28.2439 59.2693C37.4273 63.7785 46.7699 59.147 47.1196 55.7068C46.3007 47.51 43.5002 42.0767 40.006 38.537L40.0088 38.5398ZM28.4656 37.7665L28.4742 37.7807C28.4856 37.7608 28.4969 37.7409 28.5083 37.7239C28.4969 37.7381 28.4827 37.7523 28.4685 37.7665H28.4656Z" fill="#C15354"></path><path d="M33.7937 14.9389C23.5413 16.4941 19.8907 29.3025 19.8907 29.3025C25.0311 18.6577 33.8591 15.0469 33.7937 14.9389ZM27.7037 12.326C18.2445 16.8353 18.87 29.5356 18.87 29.5356C21.5625 16.7073 27.934 12.3601 27.7037 12.326ZM16.4391 30.5677C16.4391 30.6189 16.4363 30.6672 16.4334 30.7184C16.4476 30.7241 16.4476 30.67 16.4391 30.5677ZM43.8926 4.29696C38.3826 -1.08229 31.8319 -0.158263 29.1622 0.529779C23.0381 2.30106 19.2197 7.35334 17.511 12.9487C14.9152 20.6166 16.3396 29.3224 16.442 30.5677C16.8883 16.3405 21.3862 10.2846 25.7618 7.73433C26.2565 7.45285 26.7484 7.21972 27.2374 7.0207C28.4827 6.56295 29.8986 6.18196 31.2917 6.1052C34.7718 5.88059 36.8871 7.32207 36.8871 7.32207C37.1287 7.46707 37.342 7.62913 37.5268 7.79972C37.5438 7.81394 37.5609 7.83099 37.5808 7.84521C35.9829 3.91882 30.3791 2.9294 30.2824 2.8896C30.2881 2.8896 30.2909 2.8896 30.2966 2.8896C30.652 2.87822 39.0223 2.69911 39.6677 9.28953C39.9321 13.1306 37.3306 16.9433 37.3306 16.9433C37.3306 16.9433 37.305 16.9547 37.2567 16.9746C37.251 16.9831 37.2453 16.9916 37.2396 17.0002C36.7705 17.7223 36.1933 18.4758 35.4797 19.2434C35.3432 19.3799 35.2039 19.5192 35.0618 19.6557C32.5001 22.1576 29.5205 24.5971 26.8706 26.6157C26.8166 26.6384 26.7882 26.6527 26.7882 26.6527C26.7882 26.6527 26.5437 26.8602 26.0689 27.2241C25.7789 27.4431 25.4946 27.6534 25.2159 27.8582C24.1298 28.6429 22.495 29.7517 20.3513 30.997C25.4576 29.4674 29.8787 27.534 31.9485 26.5759C38.3115 23.4228 42.272 20.392 44.6005 17.6001C46.0989 15.6838 46.7272 13.8357 46.8807 12.1895C47.1451 8.64129 45.5672 6.03412 43.8926 4.29696Z" fill="#C15354"></path><path d="M16.1235 32.5834C15.5179 29.7232 13.5448 26.1522 7.43768 26.2432C1.27373 27.0762 0.73069 32.3303 0.73069 32.3303C2.23187 30.8604 3.85247 29.9165 6.14121 29.6919C7.25572 29.6578 10.9803 29.8227 12.2483 33.4335C12.5355 34.4371 12.7402 36.2084 11.8616 38.591C11.2703 39.8078 10.2695 40.9622 8.57779 41.2777C7.89259 41.3545 6.2066 41.3829 4.18228 40.2997C5.22856 40.186 7.25288 39.7112 8.04612 37.775C8.04612 37.775 3.95767 39.8107 0.742063 37.3115C0.494709 37.1125 0.247354 36.8908 0 36.6349C0.0255884 36.7486 1.03491 39.4837 2.86021 41.0702C8.25082 46.6257 16.0069 43.4584 16.3026 36.1459C16.3566 34.7811 16.2884 33.6012 16.1207 32.5777L16.1235 32.5834Z" fill="#C15354"></path><path d="M6.7497 30.7153C5.32244 30.377 3.89233 31.2555 3.55116 32.6799C3.20998 34.1043 4.09135 35.5344 5.51577 35.8756C6.94019 36.2168 8.37314 35.3354 8.71432 33.911C9.0555 32.4866 8.17412 31.0565 6.7497 30.7153ZM7.59696 32.606C7.50029 33.0126 7.09088 33.2656 6.68431 33.1661C6.27774 33.0694 6.0247 32.66 6.12421 32.2534C6.22372 31.8469 6.63029 31.5938 7.03686 31.6933C7.44343 31.79 7.69647 32.1994 7.59696 32.606Z" fill="#C15354"></path><path d="M4.87889 11.8282C2.14946 11.814 2.08123 13.3209 2.18643 13.9975C2.59015 14.9528 3.44594 15.6722 5.19732 14.6259C7.05959 13.645 12.6037 16.0702 11.2106 26.5131C11.2106 26.5131 14.139 12.7068 4.87605 11.8282H4.87889Z" fill="#C15354"></path><path d="M1.97872 17.9866C0.315472 18.4898 0.55714 19.4224 0.750474 19.8147C1.17695 20.3237 1.83087 20.6023 2.69803 19.6328C3.64764 18.686 7.47168 19.1267 8.58904 25.7654C8.58904 25.7654 7.77306 16.7868 1.97872 17.9866Z" fill="#C15354"></path><path d="M44.7938 4.49878C47.7251 7.03487 49.3087 9.33214 50.1105 11.3309C50.9038 13.5343 51.7709 18.4899 46.4087 23.5223C40.3045 28.6343 29.691 30.8889 26.6858 31.2358C30.0009 31.1874 48.3563 30.5022 53.3517 21.4895C53.8919 20.3749 54.1961 19.3599 54.3667 18.5894C56.3996 7.24242 44.7938 4.49878 44.7938 4.49878Z" fill="#C15354"></path><path d="M70.0696 34.5169L57.6023 34.5709C56.2604 34.5709 55.4785 34.679 55.2624 34.8979C55.0805 35.1538 54.9895 35.5717 54.9895 36.1517C54.9895 38.9835 55.7969 41.1557 57.4119 42.6625C59.0268 44.1694 60.8691 44.9229 62.9361 44.9229C65.0031 44.9229 66.618 44.6499 67.7808 44.1069C67.8178 44.1069 68.1789 43.8709 68.8698 43.3989C69.5578 42.927 70.0411 42.691 70.3112 42.691C70.5813 42.691 70.7917 42.799 70.9367 43.0179C71.0817 43.2369 71.1557 43.4529 71.1557 43.6719C71.1557 45.0536 70.1378 46.2222 68.1078 47.186C66.0749 48.147 63.7066 48.6303 61.0028 48.6303C58.2989 48.6303 55.723 47.5414 53.2722 45.3607C50.8214 43.1828 49.5989 40.2402 49.5989 36.5356C49.5989 32.8309 50.7504 29.7802 53.0561 27.3835C55.3591 24.9867 58.4553 23.7869 62.339 23.7869C65.1708 23.7869 67.4567 24.6228 69.1996 26.2917C71.0505 28.0345 71.9773 30.1413 71.9773 32.6092C71.9773 33.8801 71.3433 34.5169 70.0724 34.5169H70.0696ZM55.9164 31.8472C62.811 31.8472 66.8028 31.8102 67.8917 31.7392C67.7837 30.2863 67.2293 29.0893 66.2313 28.1454C65.2334 27.2015 63.971 26.7295 62.4471 26.7295C60.9231 26.7295 59.4987 27.2669 58.1738 28.3359C56.8489 29.4078 56.0955 30.5792 55.9135 31.85L55.9164 31.8472Z" fill="#C15354"></path><path d="M95.9281 34.5169L83.4608 34.5709C82.1189 34.5709 81.337 34.679 81.1209 34.8979C80.939 35.1538 80.848 35.5717 80.848 36.1517C80.848 38.9835 81.6554 41.1557 83.2703 42.6625C84.8853 44.1694 86.7276 44.9229 88.7974 44.9229C90.8672 44.9229 92.4793 44.6499 93.6422 44.1069C93.6763 44.1069 94.0402 43.8709 94.7311 43.3989C95.4191 42.927 95.9025 42.691 96.1726 42.691C96.4427 42.691 96.6531 42.799 96.7981 43.0179C96.9431 43.2369 97.017 43.4529 97.017 43.6719C97.017 45.0536 95.9991 46.2222 93.9691 47.186C91.9363 48.147 89.5679 48.6303 86.8641 48.6303C84.1603 48.6303 81.5844 47.5414 79.1336 45.3607C76.6828 43.1828 75.4602 40.2402 75.4602 36.5356C75.4602 32.8309 76.6117 29.7802 78.9175 27.3835C81.2204 24.9867 84.3166 23.7869 88.2004 23.7869C91.0321 23.7869 93.318 24.6228 95.0581 26.2917C96.9089 28.0345 97.8358 30.1413 97.8358 32.6092C97.8358 33.8801 97.1989 34.5169 95.9309 34.5169H95.9281ZM81.7749 31.8472C88.6695 31.8472 92.6613 31.8102 93.7502 31.7392C93.6422 30.2863 93.0878 29.0893 92.0898 28.1454C91.0919 27.2015 89.8295 26.7295 88.3056 26.7295C86.7816 26.7295 85.3572 27.2669 84.0323 28.3359C82.7074 29.4078 81.954 30.5792 81.772 31.85L81.7749 31.8472Z" fill="#C15354"></path><path d="M103.491 45.0079L103.272 21.1482C103.272 16.2097 103.343 12.7609 103.491 10.7992C103.528 10.5092 104.29 10.3642 105.777 10.3642C107.264 10.3642 108.125 10.4551 108.361 10.6371C108.597 10.8191 108.716 11.1091 108.716 11.5099C108.716 19.2092 108.787 24.3837 108.935 27.0335C109.734 26.4535 112.256 24.1278 116.501 20.0621C120.749 15.9964 123.305 13.5513 124.177 12.7353C125.047 11.9194 125.61 11.3735 125.866 11.1005C126.119 10.8276 126.338 10.603 126.52 10.421C127.029 9.98601 127.444 9.76709 127.771 9.76709C128.098 9.76709 128.516 10.0315 129.022 10.5575C129.531 11.0835 129.784 11.4758 129.784 11.7289C129.784 11.9819 129.676 12.2378 129.457 12.4908C129.238 12.7467 128.948 13.0452 128.587 13.3893C128.223 13.7361 127.987 13.9607 127.879 14.0716C124.504 17.6312 120.166 21.8988 114.869 26.8715C113.78 27.8154 113.237 28.3869 113.237 28.5888C113.237 28.7906 113.419 29.0152 113.783 29.2711C114.144 29.527 114.582 29.8085 115.091 30.1155C115.6 30.4254 116.134 30.795 116.697 31.2329C117.26 31.6679 118.494 32.7142 120.399 34.366C122.304 36.0179 123.509 37.0443 124.018 37.4452C130.225 42.6396 133.327 45.6533 133.327 46.4864C133.327 46.8873 132.926 47.4388 132.13 48.1468C131.331 48.8547 130.768 49.2101 130.441 49.2101C130.114 49.2101 129.804 49.1362 129.517 48.9912C129.23 48.8462 128.991 48.7012 128.809 48.5562C127.973 47.7573 127.467 47.3024 127.285 47.1943H127.339L124.726 44.9625C123.02 43.5096 120.862 41.6758 118.247 39.461C115.634 37.2461 113.908 35.7762 113.075 35.0484C112.239 34.3234 111.676 33.8315 111.386 33.5785C111.096 33.3254 110.86 33.1236 110.678 32.9786C110.243 32.5066 109.754 32.1967 109.208 32.0517C108.955 32.1967 108.827 33.3596 108.827 35.5374L108.935 41.1469L109.154 45.8865C109.154 47.0124 108.981 47.7374 108.637 48.0643C108.293 48.3913 107.619 48.5534 106.624 48.5534C105.629 48.5534 104.935 48.4908 104.554 48.3629C104.173 48.2349 103.909 47.9535 103.764 47.5185C103.582 46.9726 103.491 46.1395 103.491 45.0136V45.0079Z" fill="#EDA35A"></path></svg>